<svg width="130" height="126" viewBox="0 0 130 126" fill="none" xmlns="http://www.w3.org/2000/svg">
<g id="Layer_1" opacity="0.6" clip-path="url(#clip0_119_192)">
<path id="Vector" d="M81.1541 32.3798C81.1702 32.364 81.1866 32.3481 81.2027 32.332L81.1363 3.02536C81.1287 0.31699 79.2117 -0.77542 76.855 0.58542L33.1555 25.8152C30.7986 27.176 28.8928 30.4754 28.9004 33.1837L29.0064 80.0381C28.99 80.0539 28.9739 80.0699 28.9578 80.086L29.0242 109.393C29.0318 112.101 30.9485 113.193 33.3055 111.832L77.0047 86.6028C79.3619 85.2419 81.2676 81.9425 81.26 79.2342L81.1541 32.3798Z" fill="white"/>
<path id="Vector_2" d="M35.8128 39.3562L71.2939 19.228C71.7799 18.9474 72.1753 19.1728 72.1769 19.7312C72.1785 20.2896 71.7856 20.97 71.2996 21.2506L35.8185 41.3789C35.3326 41.6594 34.9371 41.4341 34.9356 40.8757C34.934 40.3173 35.3268 39.6368 35.8128 39.3562Z" fill="#66C3FF"/>
<path id="Vector_3" d="M35.8128 51.7598L71.2939 31.6315C71.7799 31.351 72.1753 31.5763 72.1769 32.1347C72.1785 32.6931 71.7856 33.3736 71.2996 33.6541L35.8185 53.7824C35.3326 54.063 34.9371 53.8376 34.9356 53.2792C34.934 52.7208 35.3268 52.0404 35.8128 51.7598Z" fill="#66C3FF"/>
<path id="Vector_4" d="M35.8128 64.1635L71.2939 44.0352C71.7799 43.7547 72.1753 43.98 72.1769 44.5384C72.1785 45.0968 71.7856 45.7773 71.2996 46.0578L35.8185 66.1861C35.3326 66.4667 34.9371 66.2413 34.9356 65.6829C34.934 65.1245 35.3268 64.4441 35.8128 64.1635Z" fill="#66C3FF"/>
<path id="Vector_5" d="M35.8128 76.5671L71.2939 56.4388C71.7799 56.1582 72.1753 56.3836 72.1769 56.942C72.1785 57.5004 71.7856 58.1808 71.2996 58.4614L35.8185 78.5897C35.3326 78.8702 34.9371 78.6449 34.9356 78.0865C34.934 77.5281 35.3268 76.8476 35.8128 76.5671Z" fill="#66C3FF"/>
<path id="Vector_6" d="M35.8128 88.9707L71.2939 68.8425C71.7799 68.5619 72.1753 68.7873 72.1769 69.3457C72.1785 69.9041 71.7856 70.5845 71.2996 70.8651L35.8185 90.9934C35.3326 91.2739 34.9371 91.0486 34.9356 90.4902C34.934 89.9318 35.3268 89.2513 35.8128 88.9707Z" fill="#66C3FF"/>
<path id="Vector_7" d="M91.0174 39.0697C91.0335 39.0538 91.0498 39.0379 91.0659 39.0218L90.9995 9.71518C90.992 7.00681 89.075 5.9144 86.7183 7.27524L43.0188 32.505C40.6619 33.8658 38.7561 37.1653 38.7637 39.8735L38.8697 86.7279C38.8533 86.7438 38.8372 86.7597 38.8211 86.7759L38.8875 116.082C38.8951 118.791 40.8118 119.883 43.1687 118.522L86.868 93.2926C89.2251 91.9317 91.1309 88.6323 91.1233 85.924L91.0174 39.0697Z" fill="#3375B0"/>
<path id="Vector_8" d="M100.883 45.7595C100.899 45.7436 100.915 45.7277 100.931 45.7116L100.865 16.405C100.857 13.6966 98.9402 12.6042 96.5835 13.9651L52.8841 39.1948C50.5271 40.5556 48.6214 43.8551 48.6289 46.5633L48.7349 93.4177C48.7185 93.4336 48.7024 93.4496 48.6863 93.4657L48.7527 122.772C48.7603 125.481 50.677 126.573 53.034 125.212L96.7332 99.9824C99.0904 98.6216 100.996 95.3221 100.989 92.6139L100.883 45.7595Z" fill="#66C3FF"/>
<path id="Vector_9" d="M57.0999 50.0234L92.581 29.8951C93.067 29.6145 93.4624 29.8399 93.464 30.3983C93.4656 30.9567 93.0727 31.6371 92.5867 31.9177L57.1056 52.046C56.6197 52.3265 56.2242 52.1012 56.2227 51.5428C56.2211 50.9844 56.6139 50.3039 57.0999 50.0234Z" fill="white"/>
<path id="Vector_10" d="M57.0999 62.4269L92.581 42.2986C93.067 42.0181 93.4624 42.2434 93.464 42.8018C93.4656 43.3602 93.0727 44.0407 92.5867 44.3213L57.1056 64.4495C56.6197 64.7301 56.2242 64.5047 56.2227 63.9464C56.2211 63.388 56.6139 62.7075 57.0999 62.4269Z" fill="white"/>
<path id="Vector_11" d="M57.0999 74.8306L92.581 54.7023C93.067 54.4218 93.4624 54.6471 93.464 55.2055C93.4656 55.7639 93.0727 56.4444 92.5867 56.7249L57.1056 76.8532C56.6197 77.1338 56.2242 76.9084 56.2227 76.35C56.2211 75.7916 56.6139 75.1112 57.0999 74.8306Z" fill="white"/>
<path id="Vector_12" d="M57.0999 87.2342L92.581 67.1059C93.067 66.8253 93.4624 67.0507 93.464 67.6091C93.4656 68.1675 93.0727 68.8479 92.5867 69.1285L57.1056 89.2568C56.6197 89.5373 56.2242 89.312 56.2227 88.7536C56.2211 88.1952 56.6139 87.5148 57.0999 87.2342Z" fill="white"/>
<path id="Vector_13" d="M57.0999 99.6379L92.581 79.5096C93.067 79.229 93.4624 79.4544 93.464 80.0128C93.4656 80.5712 93.0727 81.2516 92.5867 81.5322L57.1056 101.66C56.6197 101.941 56.2242 101.716 56.2227 101.157C56.2211 100.599 56.6139 99.9184 57.0999 99.6379Z" fill="white"/>
<path id="Vector_14" d="M16.9288 73.0299C16.9636 73.037 17.0009 73.0389 17.04 73.0356C17.0409 73.0355 17.0418 73.0354 17.0427 73.0354C17.0816 73.0318 17.1224 73.0231 17.1646 73.0088C17.1654 73.0086 17.166 73.0084 17.1667 73.0082C17.2097 72.9934 17.2541 72.9732 17.2996 72.947L20.0644 71.3507C20.0718 71.3464 20.0791 71.3423 20.0864 71.3384C20.0959 71.3332 20.1053 71.3284 20.1145 71.3238C20.1238 71.3192 20.1331 71.3148 20.1422 71.3107C20.1514 71.3066 20.1605 71.3028 20.1695 71.2992C20.1785 71.2956 20.1874 71.2922 20.1962 71.2891C20.1977 71.2886 20.1992 71.2882 20.2006 71.2877C20.2011 71.2875 20.2015 71.2874 20.202 71.2872C20.2089 71.2848 20.2159 71.2825 20.2227 71.2804C20.232 71.2777 20.2412 71.2751 20.2502 71.2729C20.2593 71.2706 20.2682 71.2686 20.2771 71.2669C20.2866 71.2651 20.296 71.2635 20.3052 71.2623C20.3116 71.2615 20.3179 71.261 20.3241 71.2604C20.3252 71.2603 20.3262 71.2602 20.3273 71.2601C20.3297 71.2599 20.3321 71.2595 20.3345 71.2594C20.3446 71.2587 20.3545 71.2584 20.3642 71.2584C20.3758 71.2585 20.3871 71.259 20.3982 71.2601C20.4108 71.2613 20.4231 71.2631 20.4351 71.2655C20.4355 71.2656 20.4359 71.2658 20.4362 71.2658C20.4368 71.266 20.4373 71.2662 20.4379 71.2663C20.4516 71.2692 20.4651 71.2728 20.4779 71.2773C20.497 71.2839 20.5151 71.2923 20.5322 71.3022L25.7656 74.3436C25.737 74.3269 25.7054 74.3149 25.6713 74.3077C25.6708 74.3075 25.6702 74.3073 25.6697 74.3072C25.6357 74.3002 25.5993 74.2982 25.5607 74.3014C25.5597 74.3015 25.5586 74.3016 25.5576 74.3017C25.519 74.3053 25.4782 74.314 25.4355 74.3285C25.435 74.3287 25.4345 74.3288 25.434 74.329C25.3905 74.3439 25.3451 74.3647 25.2979 74.392L22.533 75.9883C22.526 75.9923 22.519 75.9962 22.5121 76C22.503 76.0049 22.494 76.0096 22.4851 76.014C22.4762 76.0184 22.4673 76.0226 22.4584 76.0266C22.4496 76.0305 22.4408 76.0342 22.4321 76.0377C22.4232 76.0413 22.4143 76.0446 22.4055 76.0477C22.4037 76.0484 22.4019 76.0489 22.4002 76.0495C22.3995 76.0497 22.3988 76.0499 22.3981 76.0502C22.3917 76.0523 22.3854 76.0545 22.3791 76.0564C22.37 76.0591 22.3609 76.0616 22.3519 76.0639C22.3428 76.0662 22.3337 76.0681 22.3248 76.0699C22.3151 76.0718 22.3055 76.0734 22.2959 76.0746C22.2893 76.0756 22.2827 76.0761 22.2761 76.0767C22.2752 76.0767 22.2743 76.0769 22.2734 76.077C22.2711 76.0771 22.2688 76.0775 22.2666 76.0776C22.2561 76.0784 22.2457 76.0787 22.2355 76.0786C22.2239 76.0786 22.2125 76.0781 22.2013 76.077C22.1883 76.0759 22.1757 76.074 22.1632 76.0715C22.1629 76.0714 22.1636 76.0716 22.1632 76.0715C22.1626 76.0714 22.1612 76.0709 22.1606 76.0708C22.1457 76.0677 22.1311 76.0637 22.117 76.0588C22.0984 76.0521 22.0805 76.0439 22.0635 76.0341L16.8301 72.9927C16.8598 73.01 16.8923 73.0222 16.9272 73.0295C16.9278 73.0296 16.9283 73.0298 16.9288 73.0299Z" fill="white"/>
<path id="Vector_15" d="M1.77387e-05 83.6976C-5.22613e-05 83.6875 8.77386e-05 83.6772 0.000387739 83.6668C0.000687739 83.6565 0.00117774 83.646 0.00184774 83.6355C0.00251774 83.625 0.00335774 83.6145 0.00437774 83.6039C0.00539774 83.5932 0.00658774 83.5825 0.00796774 83.5717C0.00935774 83.5606 0.0109477 83.5494 0.0127277 83.5382C0.0132277 83.535 0.0138477 83.5318 0.0143677 83.5287C0.0144677 83.5281 0.0145877 83.5274 0.0147177 83.5267C0.0159777 83.5192 0.0171977 83.5118 0.0186077 83.5042C0.0207877 83.4927 0.0231177 83.4812 0.0256477 83.4696C0.0282277 83.4577 0.0310077 83.4458 0.0339577 83.434C0.0369077 83.422 0.0400577 83.4101 0.0433777 83.3981C0.0466277 83.3864 0.0500677 83.3746 0.0536877 83.3628C0.0572777 83.351 0.0610777 83.3392 0.0650077 83.3274C0.0672677 83.3207 0.0696777 83.3139 0.0720577 83.3071C0.0723277 83.3063 0.0726077 83.3056 0.0728977 83.3048C0.0742877 83.3009 0.0755777 83.2969 0.0770177 83.293C0.0810077 83.282 0.0851277 83.271 0.0893877 83.2601C0.0936277 83.2491 0.0980377 83.2381 0.102578 83.2272C0.107138 83.2162 0.111848 83.2053 0.116658 83.1944C0.121488 83.1834 0.126478 83.1725 0.131608 83.1616C0.136718 83.1507 0.141948 83.1399 0.147318 83.1291C0.154738 83.1142 0.162418 83.0994 0.170308 83.0847C0.170428 83.0846 0.170748 83.0838 0.170748 83.0838C0.183258 83.0606 0.196288 83.0377 0.209868 83.0152C0.223308 82.9929 0.237308 82.9709 0.251868 82.9493C0.263718 82.9317 0.275918 82.9143 0.288458 82.8972C0.293048 82.891 0.297828 82.8849 0.302488 82.8787C0.303498 82.8774 0.304468 82.8761 0.305468 82.8748C0.309728 82.8692 0.313898 82.8635 0.318208 82.858C0.326308 82.8477 0.334548 82.8375 0.342918 82.8274C0.351258 82.8174 0.359728 82.8074 0.368308 82.7976C0.376688 82.7881 0.385188 82.7787 0.393798 82.7694C0.402378 82.7602 0.411098 82.7511 0.419928 82.7421C0.428948 82.7329 0.438048 82.7239 0.447298 82.715C0.453878 82.7087 0.460568 82.7026 0.467258 82.6965C0.467858 82.6959 0.468428 82.6953 0.469018 82.6948C0.471338 82.6927 0.473608 82.6905 0.475958 82.6884C0.485598 82.6797 0.495368 82.6712 0.505238 82.6629C0.514808 82.6547 0.524478 82.6468 0.534268 82.6391C0.544038 82.6314 0.553928 82.6239 0.563898 82.6165C0.573588 82.6094 0.583388 82.6024 0.593248 82.5956C0.602838 82.5891 0.612508 82.5827 0.622258 82.5765C0.631998 82.5703 0.641818 82.5642 0.651738 82.5584C0.654018 82.557 0.656298 82.5557 0.658608 82.5544L3.4235 80.9581C3.46845 80.9321 3.51228 80.9015 3.55473 80.8671C3.55582 80.8662 3.55694 80.8653 3.55803 80.8644C3.59985 80.8302 3.64027 80.7924 3.67877 80.7514C3.67951 80.7507 3.68026 80.7499 3.68097 80.7491C3.72002 80.7075 3.75719 80.6627 3.79192 80.6156C3.82624 80.569 3.85824 80.5198 3.88752 80.4694C3.88898 80.4669 3.89035 80.4643 3.89181 80.4617C3.92035 80.4119 3.94643 80.3607 3.96924 80.3087C3.96954 80.308 3.96986 80.3072 3.97016 80.3065C3.99344 80.2531 4.0135 80.1989 4.02988 80.1447C4.03008 80.144 4.03028 80.1433 4.03048 80.1426C4.04687 80.0881 4.05964 80.0335 4.06823 79.9796C4.07691 79.925 4.08144 79.871 4.0813 79.8188L4.03838 64.683C4.03831 64.6595 4.03865 64.6359 4.03935 64.6121C4.04009 64.5869 4.04128 64.5616 4.0429 64.5362C4.04451 64.5108 4.04654 64.4853 4.04897 64.4597C4.05142 64.4342 4.05428 64.4085 4.05755 64.3828C4.06085 64.3566 4.06462 64.3303 4.06876 64.304C4.06888 64.3032 4.06903 64.3024 4.06916 64.3017C4.06921 64.3013 4.06928 64.301 4.06936 64.3006C4.07338 64.2754 4.07772 64.25 4.0825 64.2246C4.08761 64.1974 4.09316 64.1701 4.09911 64.1428C4.10508 64.1154 4.11148 64.088 4.11827 64.0605C4.12514 64.0328 4.13245 64.005 4.14016 63.9773C4.14606 63.9559 4.15246 63.9346 4.15885 63.9132C4.1594 63.9114 4.15989 63.9096 4.16044 63.9078C4.1618 63.9033 4.16297 63.8989 4.16436 63.8944C4.17264 63.8673 4.18132 63.8402 4.19037 63.8133C4.1993 63.7866 4.20859 63.7599 4.21823 63.7333C4.22753 63.7076 4.23715 63.682 4.24709 63.6565C4.25701 63.631 4.26722 63.6056 4.27776 63.5803C4.28572 63.5611 4.29397 63.5421 4.30225 63.5231C4.30287 63.5216 4.30346 63.5202 4.30408 63.5188C4.30601 63.5144 4.30785 63.5099 4.30981 63.5054C4.32102 63.4801 4.33251 63.4548 4.34432 63.4297C4.35726 63.4021 4.37053 63.3747 4.38414 63.3474C4.39986 63.3159 4.41602 63.2846 4.43261 63.2535C4.45044 63.2202 4.46935 63.1873 4.48817 63.1545C4.49152 63.1486 4.49462 63.1428 4.49801 63.1369C4.50215 63.1298 4.50592 63.1225 4.51011 63.1154C4.54727 63.0522 4.58625 62.9902 4.62686 62.9294C4.65829 62.8824 4.69075 62.8363 4.7241 62.791C4.72452 62.7904 4.72487 62.7898 4.72531 62.7892C4.72553 62.789 4.72578 62.7886 4.726 62.7882C4.74871 62.7575 4.77182 62.7271 4.79534 62.6972C4.81517 62.6721 4.83526 62.6472 4.85566 62.6227C4.87554 62.5988 4.8957 62.5752 4.91608 62.552C4.93611 62.5292 4.95639 62.5067 4.97692 62.4846C4.98069 62.4805 4.98461 62.4766 4.9884 62.4725C4.99006 62.4708 4.99174 62.4691 4.99343 62.4673C5.00915 62.4506 5.02492 62.4338 5.04091 62.4175C5.06268 62.3954 5.08464 62.3736 5.10686 62.3523C5.12957 62.3305 5.1525 62.3092 5.17568 62.2883C5.19866 62.2676 5.22187 62.2473 5.24527 62.2276C5.25685 62.2178 5.2686 62.2085 5.28028 62.199C5.28286 62.1969 5.28539 62.1948 5.28797 62.1927C5.29697 62.1854 5.30585 62.1779 5.31492 62.1707C5.33763 62.1528 5.36054 62.1353 5.38362 62.1183C5.40613 62.1017 5.42879 62.0856 5.45163 62.07C5.47367 62.0549 5.49581 62.0402 5.51809 62.0261C5.54004 62.0121 5.5621 61.9986 5.58429 61.9855C5.5894 61.9825 5.59453 61.9795 5.59966 61.9765L15.0227 56.5362C15.0394 56.5266 15.0559 56.5173 15.0725 56.5083C15.0939 56.4967 15.1153 56.4856 15.1365 56.4751C15.1505 56.4682 15.1643 56.462 15.1782 56.4555C15.1813 56.4541 15.1844 56.4525 15.1875 56.4511C15.1917 56.4492 15.1958 56.4471 15.1999 56.4453C15.2209 56.4359 15.2418 56.427 15.2625 56.4187C15.2837 56.4102 15.3048 56.4023 15.3257 56.395C15.3293 56.3937 15.3328 56.3927 15.3364 56.3914C15.3396 56.3903 15.3428 56.3894 15.346 56.3883C15.3601 56.3836 15.3743 56.3787 15.3884 56.3745C15.4101 56.3679 15.4316 56.3619 15.453 56.3566C15.4635 56.354 15.4737 56.3521 15.484 56.3497C15.4884 56.3487 15.4928 56.3477 15.4972 56.3468C15.5039 56.3454 15.5106 56.3436 15.5172 56.3423C15.5403 56.3378 15.5631 56.3341 15.5857 56.3311C15.5997 56.3292 15.6134 56.3282 15.6272 56.3268C15.632 56.3264 15.6368 56.3257 15.6415 56.3254C15.6461 56.325 15.6508 56.3243 15.6554 56.324C15.6802 56.3223 15.7048 56.3215 15.729 56.3215C15.7397 56.3216 15.75 56.3226 15.7605 56.323C15.7687 56.3233 15.7769 56.3236 15.785 56.3242C15.7933 56.3247 15.8019 56.3246 15.8101 56.3254C15.8409 56.3282 15.871 56.3325 15.9004 56.3385C15.9009 56.3386 15.9014 56.3388 15.902 56.3389C15.9089 56.3404 15.9153 56.3429 15.9222 56.3445C15.952 56.3513 15.9816 56.3586 16.0099 56.3686C16.0122 56.3695 16.0142 56.3709 16.0165 56.3717C16.0583 56.387 16.0986 56.4051 16.1367 56.4272L21.3702 59.4686C21.3321 59.4465 21.2918 59.4283 21.25 59.413C21.2195 59.4019 21.1879 59.3932 21.1556 59.3858C21.1488 59.3842 21.1424 59.3817 21.1354 59.3802C21.0977 59.3726 21.0585 59.3681 21.0184 59.3655C21.0103 59.365 21.0022 59.3647 20.994 59.3644C20.9552 59.3629 20.9156 59.3634 20.875 59.3667C20.8702 59.3671 20.8654 59.3677 20.8606 59.3682C20.8182 59.3722 20.7749 59.3788 20.7307 59.3882C20.7263 59.3891 20.7219 59.3901 20.7175 59.3911C20.6723 59.4011 20.6263 59.414 20.5795 59.4296C20.5763 59.4307 20.5731 59.4317 20.5699 59.4328C20.5211 59.4496 20.4714 59.4695 20.421 59.4924C20.4179 59.4939 20.4147 59.4954 20.4115 59.4969C20.3604 59.5206 20.3086 59.5472 20.2562 59.5775L10.8331 65.0179C10.7264 65.0796 10.6222 65.1524 10.5215 65.234C10.5189 65.2362 10.5163 65.2383 10.5137 65.2404C10.4143 65.3215 10.3184 65.4114 10.2269 65.5086C10.2252 65.5104 10.2236 65.5121 10.2219 65.5139C10.1293 65.6127 10.0412 65.7188 9.95878 65.8306C9.95836 65.8312 9.95799 65.8317 9.95757 65.8323C9.8763 65.9427 9.80083 66.0587 9.73151 66.1783C9.72811 66.1841 9.72496 66.1901 9.72159 66.196C9.65381 66.3143 9.59188 66.436 9.53772 66.5598C9.53701 66.5615 9.53631 66.5632 9.53559 66.5648C9.4804 66.6915 9.43283 66.8202 9.3939 66.9492C9.39338 66.951 9.39288 66.9528 9.39234 66.9546C9.35351 67.084 9.32329 67.2136 9.30289 67.3417C9.30279 67.3422 9.30272 67.3427 9.30262 67.3432C9.28214 67.4724 9.27153 67.6001 9.27188 67.7243L9.3148 82.8602C9.3148 82.87 9.31468 82.8799 9.3144 82.8899C9.31405 82.9004 9.31358 82.911 9.31291 82.9217C9.31222 82.9323 9.31135 82.943 9.31036 82.9537C9.30934 82.9644 9.30813 82.9752 9.30677 82.9859C9.30536 82.997 9.30379 83.008 9.30206 83.019C9.30199 83.0195 9.30189 83.02 9.30181 83.0204C9.30018 83.0309 9.29827 83.0418 9.29631 83.0524C9.29415 83.0638 9.29182 83.0753 9.28931 83.0868C9.28681 83.0983 9.2841 83.1098 9.28126 83.1213C9.27838 83.1329 9.27531 83.1446 9.27206 83.1563C9.26951 83.1656 9.26673 83.1748 9.26395 83.184C9.26375 83.1847 9.26358 83.1854 9.26338 83.186C9.26286 83.1878 9.26239 83.1895 9.26187 83.1912C9.2584 83.2026 9.25475 83.2139 9.25094 83.2253C9.24717 83.2365 9.24328 83.2477 9.23921 83.259C9.23529 83.2697 9.23125 83.2805 9.22706 83.2912C9.22289 83.302 9.21861 83.3127 9.21417 83.3233C9.21075 83.3316 9.20718 83.3397 9.20361 83.3479C9.20331 83.3486 9.20303 83.3493 9.20274 83.35C9.20204 83.3516 9.20135 83.3533 9.20063 83.3549C9.19592 83.3656 9.19106 83.3762 9.18608 83.3868C9.1806 83.3986 9.175 83.4102 9.16922 83.4217C9.16258 83.435 9.15576 83.4482 9.14874 83.4613C9.14118 83.4755 9.13318 83.4894 9.12519 83.5033C9.12381 83.5058 9.12252 83.5082 9.12113 83.5106C9.11944 83.5135 9.11788 83.5165 9.11617 83.5194C9.1006 83.5459 9.08424 83.5719 9.06721 83.5975C9.05365 83.6178 9.03964 83.6377 9.02524 83.6573C9.0156 83.6703 9.00578 83.6832 8.99578 83.6958C8.98743 83.7065 8.97898 83.717 8.97037 83.7273C8.96199 83.7374 8.95351 83.7473 8.94491 83.7571C8.93646 83.7667 8.9279 83.7762 8.91925 83.7855C8.91768 83.7872 8.91608 83.7888 8.91449 83.7905C8.91375 83.7913 8.91303 83.7921 8.91228 83.7928C8.90564 83.7999 8.89899 83.807 8.89225 83.8138C8.88308 83.8232 8.8738 83.8323 8.86446 83.8413C8.85489 83.8505 8.84522 83.8595 8.83548 83.8683C8.82579 83.877 8.81602 83.8855 8.80615 83.8938C8.80129 83.898 8.79636 83.9018 8.79147 83.9059C8.7904 83.9067 8.78936 83.9076 8.7883 83.9084C8.78448 83.9115 8.78069 83.9147 8.77685 83.9178C8.76728 83.9253 8.75764 83.9327 8.74794 83.9398C8.73844 83.9468 8.7289 83.9536 8.71928 83.9602C8.71003 83.9666 8.70071 83.9727 8.69133 83.9787C8.68209 83.9845 8.67282 83.9902 8.66349 83.9957C8.66133 83.997 8.65915 83.9982 8.65699 83.9995L5.8921 85.5958C5.82511 85.6345 5.76169 85.6821 5.70256 85.7362C5.70196 85.7367 5.70132 85.7373 5.70073 85.7379C5.64227 85.7916 5.58812 85.8518 5.53889 85.9163C5.53797 85.9175 5.53706 85.9187 5.53611 85.92C5.48682 85.985 5.44242 86.0542 5.40397 86.1258C5.36534 86.1976 5.33259 86.2719 5.30641 86.3461C5.30611 86.347 5.30584 86.3478 5.30554 86.3487C5.27965 86.4224 5.26031 86.4962 5.24824 86.568C5.24812 86.5687 5.24797 86.5695 5.24784 86.5703C5.23589 86.6421 5.23123 86.7119 5.23468 86.7774C5.23473 86.778 5.23477 86.7786 5.23483 86.7793C5.24204 86.911 5.28191 87.0256 5.36075 87.1052L15.1063 96.9535C15.1271 96.9743 15.1495 96.9916 15.1734 97.0055L9.93995 93.9641C9.91605 93.9503 9.89364 93.933 9.87289 93.9121L0.127248 84.0638C0.108828 84.0452 0.0925177 84.0247 0.0782677 84.0025C0.0688177 83.9878 0.0602977 83.9724 0.0526277 83.9563C0.0470277 83.9445 0.0418777 83.9324 0.0371877 83.9199C0.0327477 83.9081 0.0287077 83.8959 0.0250677 83.8835C0.0220877 83.8732 0.0193377 83.8628 0.0168877 83.8521C0.0144377 83.8415 0.0122477 83.8307 0.0103377 83.8196C0.00859774 83.8096 0.00711774 83.7995 0.00579774 83.7892C0.00452774 83.7792 0.00346774 83.769 0.00262774 83.7587C0.00204774 83.7518 0.00170774 83.7449 0.00133774 83.7379C0.00130774 83.7372 0.00123774 83.7365 0.00121774 83.7358C0.00106774 83.7332 0.000847739 83.7306 0.000717739 83.7279C0.000297739 83.7179 5.77387e-05 83.7078 1.77387e-05 83.6976Z" fill="white"/>
<path id="Vector_16" d="M10.8341 65.018C9.96933 65.5172 9.26995 66.7286 9.27278 67.7244L9.3157 82.8602C9.31687 83.2786 9.02201 83.7893 8.65791 83.9995L5.89299 85.5959C5.35445 85.9068 5.04541 86.7858 5.36164 87.1053L15.1072 96.9535C15.2396 97.0866 15.4419 97.0746 15.6439 96.958C15.8458 96.8414 16.0475 96.6202 16.1787 96.3349L25.8367 75.284C26.15 74.6011 25.8371 74.0811 25.2985 74.3921L22.5336 75.9884C22.1695 76.1986 21.8727 76.0295 21.8715 75.6111L21.8286 60.4753C21.8258 59.4794 21.1218 59.0783 20.2571 59.5776L10.8341 65.018Z" fill="#14336D"/>
<path id="Vector_17" d="M104.016 24.1394C104.016 24.1317 104.017 24.1238 104.017 24.1158C104.017 24.1151 104.017 24.1143 104.017 24.1135C104.017 24.1118 104.017 24.1102 104.017 24.1086C104.018 24.0983 104.019 24.088 104.02 24.0776C104.021 24.0671 104.022 24.0566 104.023 24.046C104.025 24.0353 104.026 24.0246 104.028 24.0137C104.03 24.0029 104.032 23.9919 104.034 23.9809C104.034 23.9782 104.035 23.9754 104.035 23.9726C104.036 23.9717 104.036 23.9707 104.036 23.9698C104.037 23.9624 104.039 23.955 104.04 23.9476C104.043 23.9363 104.046 23.9249 104.048 23.9135C104.051 23.9021 104.054 23.8906 104.057 23.879C104.061 23.8675 104.064 23.856 104.068 23.8444C104.07 23.8359 104.073 23.8275 104.076 23.819C104.076 23.8181 104.076 23.8173 104.076 23.8164C104.077 23.8145 104.078 23.8126 104.078 23.8106C104.082 23.7993 104.086 23.7879 104.09 23.7764C104.094 23.7652 104.099 23.754 104.103 23.7427C104.107 23.7318 104.112 23.7208 104.116 23.7098C104.121 23.6988 104.125 23.6877 104.13 23.6766C104.134 23.6695 104.137 23.6624 104.14 23.6552L113.8 2.60541C113.802 2.60177 113.803 2.59815 113.805 2.5946C113.81 2.58302 113.816 2.57157 113.822 2.56021C113.828 2.54724 113.835 2.5344 113.841 2.52171C113.852 2.50173 113.863 2.48209 113.874 2.46283C113.884 2.44624 113.894 2.4306 113.905 2.41458C113.908 2.40873 113.912 2.40283 113.916 2.39705C113.92 2.39026 113.924 2.38299 113.929 2.37632C113.941 2.35805 113.954 2.34017 113.967 2.32272C113.976 2.31055 113.985 2.29852 113.994 2.28677C114.002 2.27621 114.011 2.26585 114.019 2.25566C114.026 2.2475 114.033 2.23952 114.04 2.23159C114.04 2.23114 114.041 2.23065 114.041 2.2302C114.042 2.22906 114.043 2.22782 114.044 2.22665C114.053 2.21703 114.061 2.20758 114.07 2.19834C114.079 2.18879 114.087 2.17945 114.096 2.1703C114.106 2.1608 114.115 2.15153 114.125 2.14246C114.134 2.13319 114.144 2.12411 114.154 2.11531C114.164 2.10643 114.174 2.09776 114.184 2.0893C114.193 2.08097 114.203 2.07289 114.213 2.065C114.223 2.05731 114.233 2.04985 114.243 2.04261C114.252 2.03557 114.262 2.02875 114.272 2.02216C114.281 2.01574 114.29 2.00954 114.3 2.00357C114.309 1.99769 114.318 1.99199 114.327 1.98656C114.33 1.98532 114.332 1.98408 114.334 1.98287C114.341 1.9788 114.348 1.97489 114.355 1.97112C114.364 1.96626 114.373 1.96157 114.382 1.95711C114.391 1.9527 114.4 1.94848 114.409 1.94449C114.418 1.94047 114.426 1.93671 114.435 1.93311C114.444 1.92981 114.452 1.92669 114.46 1.92376C114.461 1.92354 114.462 1.92321 114.462 1.92306C114.471 1.91991 114.48 1.91694 114.489 1.91426C114.498 1.91151 114.507 1.909 114.516 1.90675C114.526 1.90442 114.535 1.90236 114.544 1.90058C114.553 1.89875 114.563 1.89713 114.572 1.89592C114.575 1.89547 114.579 1.89525 114.582 1.8949C114.583 1.89475 114.584 1.89468 114.585 1.89453C114.591 1.89396 114.596 1.89322 114.602 1.89287C114.612 1.89215 114.623 1.89178 114.633 1.89178C114.644 1.89185 114.655 1.89235 114.666 1.89337C114.677 1.89431 114.687 1.89592 114.697 1.89773C114.698 1.8979 114.699 1.89795 114.7 1.89813C114.701 1.89835 114.702 1.89838 114.703 1.89863C114.719 1.90173 114.734 1.90577 114.749 1.91098C114.767 1.91753 114.785 1.92573 114.802 1.93572L120.036 4.9771C120.004 4.95856 119.969 4.94623 119.933 4.93949C119.932 4.93932 119.931 4.93927 119.93 4.93909C119.895 4.93274 119.857 4.93178 119.819 4.93589C119.818 4.93601 119.816 4.93612 119.815 4.93624C119.776 4.94073 119.735 4.9503 119.694 4.96495C119.652 4.97978 119.61 4.99971 119.567 5.02418C119.467 5.08224 119.366 5.16639 119.275 5.27153C119.274 5.272 119.274 5.27248 119.273 5.27292C119.23 5.32327 119.188 5.37893 119.149 5.43838C119.145 5.44416 119.142 5.45013 119.138 5.45601C119.1 5.51583 119.064 5.57913 119.033 5.64671L110.439 24.3746L113.146 25.9479C113.186 25.9712 113.219 26.0064 113.247 26.0467C113.251 26.0518 113.257 26.0539 113.26 26.0593C113.269 26.0735 113.278 26.0885 113.285 26.1045C113.286 26.1052 113.286 26.1061 113.286 26.1069C113.287 26.1076 113.287 26.1084 113.287 26.1091C113.292 26.1198 113.297 26.1307 113.301 26.1421C113.305 26.1533 113.309 26.1649 113.313 26.1769C113.316 26.1878 113.319 26.1991 113.321 26.2107C113.323 26.2155 113.323 26.2205 113.324 26.2255C113.325 26.2268 113.325 26.228 113.325 26.2293C113.326 26.2339 113.327 26.2383 113.328 26.243C113.33 26.2533 113.331 26.2639 113.333 26.2746C113.334 26.2851 113.335 26.2957 113.336 26.3065C113.337 26.3167 113.337 26.3272 113.338 26.3377C113.338 26.3482 113.339 26.3589 113.339 26.3697C113.339 26.3704 113.339 26.371 113.339 26.3716L113.382 41.5074C113.382 41.567 113.385 41.6243 113.39 41.6795C113.39 41.6844 113.391 41.6893 113.391 41.6943C113.396 41.745 113.404 41.7938 113.413 41.8406C113.414 41.8469 113.415 41.853 113.416 41.8592C113.426 41.9045 113.437 41.9478 113.45 41.9894C113.453 41.9973 113.455 42.005 113.458 42.0127C113.471 42.0516 113.485 42.0891 113.501 42.1245C113.503 42.1284 113.505 42.1327 113.507 42.1365C113.525 42.1766 113.546 42.2142 113.569 42.2495C113.601 42.2997 113.638 42.3435 113.677 42.3838C113.687 42.3936 113.697 42.403 113.707 42.4122C113.748 42.4503 113.791 42.4853 113.839 42.513L108.606 39.4716C108.558 39.4439 108.515 39.4089 108.473 39.3708C108.463 39.3616 108.454 39.3523 108.444 39.3425C108.405 39.3022 108.368 39.2583 108.335 39.2081C108.335 39.2073 108.334 39.2068 108.334 39.2061C108.312 39.1725 108.293 39.1367 108.275 39.0989C108.274 39.0976 108.274 39.0963 108.273 39.0951C108.271 39.0915 108.27 39.0874 108.268 39.0838C108.257 39.0597 108.247 39.0354 108.237 39.0097C108.232 38.9973 108.229 38.9839 108.224 38.971C108.222 38.9635 108.219 38.956 108.217 38.9483C108.214 38.9412 108.212 38.9345 108.21 38.9273C108.202 38.9013 108.195 38.8746 108.189 38.8473C108.187 38.8377 108.185 38.8277 108.183 38.818C108.182 38.8117 108.18 38.8054 108.179 38.7991C108.177 38.7895 108.175 38.7803 108.173 38.7706C108.169 38.7461 108.166 38.7211 108.162 38.6957C108.161 38.6817 108.159 38.6672 108.158 38.6529C108.157 38.648 108.157 38.6431 108.156 38.6382C108.156 38.6321 108.155 38.6263 108.154 38.6203C108.152 38.5961 108.151 38.5714 108.15 38.5464C108.149 38.5215 108.148 38.4962 108.148 38.4706C108.148 38.4691 108.148 38.4676 108.148 38.4661L108.115 26.8647L104.212 24.5963C104.187 24.5817 104.164 24.5631 104.144 24.542C104.137 24.5352 104.131 24.5268 104.125 24.5193C104.115 24.5076 104.105 24.4968 104.096 24.4835C104.092 24.4774 104.089 24.4706 104.086 24.4643C104.083 24.4605 104.081 24.4568 104.079 24.4529C104.077 24.4478 104.073 24.4432 104.071 24.438C104.065 24.4252 104.059 24.4119 104.054 24.3982C104.05 24.3863 104.045 24.3739 104.042 24.3612C104.042 24.361 104.041 24.3602 104.041 24.36C104.038 24.3495 104.036 24.3389 104.033 24.328C104.031 24.3171 104.028 24.306 104.026 24.2946C104.025 24.2843 104.023 24.2738 104.022 24.2631C104.021 24.2577 104.02 24.2522 104.02 24.2467C104.02 24.2455 104.02 24.2443 104.02 24.243C104.019 24.2393 104.019 24.2357 104.018 24.2319C104.017 24.2216 104.017 24.2111 104.016 24.2005C104.016 24.1906 104.016 24.1805 104.016 24.1703C104.016 24.1601 104.016 24.1499 104.016 24.1394Z" fill="white"/>
<path id="Vector_18" d="M119.568 5.02416C119.367 5.14049 119.166 5.36141 119.034 5.6467L109.374 26.6965C109.061 27.3795 109.376 27.9005 109.915 27.5895L112.678 25.9943C113.043 25.783 113.338 25.9533 113.34 26.3716L113.382 41.5074C113.385 42.5033 114.091 42.9033 114.956 42.4041L124.377 36.9648C125.244 36.4644 125.943 35.2531 125.94 34.2572L125.897 19.1214C125.896 18.7031 126.191 18.1923 126.555 17.9821L129.32 16.3858C129.859 16.0748 130.168 15.1936 129.851 14.8742L120.104 5.02918C119.971 4.89607 119.77 4.90781 119.568 5.02416Z" fill="#14336D"/>
</g>
<defs>
<clipPath id="clip0_119_192">
<rect width="129.978" height="125.798" fill="white"/>
</clipPath>
</defs>
</svg>
