<svg width="172" height="25" viewBox="0 0 172 25" fill="none" xmlns="http://www.w3.org/2000/svg">
<g id="Geopostcodes-logo.svg" clip-path="url(#clip0_117_51683)">
<g id="Group 677">
<path id="Exclusion 4" d="M8.81409 24.7512C8.58091 24.753 8.35154 24.6921 8.14991 24.575C7.94829 24.4578 7.78181 24.2887 7.66786 24.0853L1.334 13.1288C1.33331 13.1233 1.33134 13.118 1.32825 13.1134C1.32511 13.1083 1.32315 13.1025 1.32251 13.0965C0.203035 11.1367 -0.104549 8.81648 0.465629 6.63269C1.03581 4.4489 2.43842 2.57519 4.37308 1.41281C6.30774 0.250437 8.62064 -0.108182 10.8165 0.413754C13.0123 0.93569 14.9164 2.29668 16.1211 4.20527L11.7337 11.8132C11.7225 11.8132 11.7226 11.8232 11.7226 11.8343C10.9413 13.1933 10.5464 14.74 10.5806 16.3072C10.6149 17.8744 11.0769 19.4024 11.9168 20.7259L9.96893 24.0856C9.85286 24.2891 9.6847 24.458 9.48174 24.575C9.27878 24.692 9.04833 24.7528 8.81409 24.7512ZM8.81409 5.15801C8.22749 5.15822 7.65413 5.33235 7.16649 5.65839C6.67885 5.98442 6.29882 6.44772 6.07446 6.98971C5.85009 7.5317 5.79146 8.12805 5.90598 8.70335C6.02049 9.27866 6.30302 9.8071 6.71783 10.2219C7.13264 10.6366 7.66111 10.9191 8.23643 11.0335C8.81175 11.148 9.40809 11.0893 9.95005 10.8648C10.492 10.6404 10.9553 10.2603 11.2812 9.77264C11.6072 9.28496 11.7813 8.71158 11.7814 8.12499C11.7806 7.33827 11.4676 6.58403 10.9112 6.02783C10.3548 5.47164 9.60045 5.15894 8.81373 5.15837L8.81409 5.15801Z" fill="#E8E8E8"/>
<g id="Group 545">
<path id="Path 247" d="M45.3529 4.9299C46.0624 4.92306 46.7683 5.03107 47.4433 5.24975C48.0448 5.44406 48.6155 5.72304 49.1384 6.07828C49.5816 6.37316 49.9703 6.74278 50.2871 7.17066L48.9686 8.54519C48.4757 8.07503 47.9174 7.67857 47.3111 7.3681C46.7046 7.05977 46.0329 6.90157 45.3526 6.90681C44.505 6.89548 43.6698 7.11009 42.9327 7.52856C42.2249 7.92882 41.6366 8.51062 41.2286 9.21398C40.8071 9.94988 40.5923 10.786 40.6068 11.6339C40.5968 12.4891 40.825 13.3302 41.2659 14.0631C41.6946 14.7815 42.3002 15.378 43.0249 15.7959C43.7532 16.2212 44.5827 16.4423 45.4261 16.436C46.0355 16.4397 46.6387 16.3146 47.1963 16.0687C47.7195 15.8458 48.1813 15.5001 48.5428 15.0611C48.8834 14.6479 49.0669 14.1275 49.0608 13.5921V13.4794H45.3145V11.4648H51.1526C51.1774 11.6529 51.1996 11.8414 51.2183 12.0295C51.2373 12.2172 51.2467 12.4058 51.2467 12.5945C51.2467 13.2843 51.142 13.9701 50.9361 14.6285C50.7429 15.2696 50.4122 15.8608 49.9669 16.3609C49.4433 17.0056 48.7758 17.5184 48.018 17.8582C47.1874 18.2354 46.284 18.425 45.3719 18.4136C43.5571 18.4292 41.81 17.725 40.5131 16.4553C39.8864 15.8421 39.39 15.1087 39.0535 14.2989C38.7038 13.4545 38.5276 12.5482 38.5355 11.6342C38.5264 10.7263 38.7026 9.82601 39.0535 8.98854C39.3909 8.18997 39.8838 7.46647 40.5034 6.86014C41.1287 6.2488 41.8677 5.76575 42.6785 5.43821C43.5281 5.09533 44.4368 4.92263 45.3529 4.9299Z" fill="#E8E8E8"/>
<path id="Path 248" d="M62.358 16.926H62.3393C61.8537 17.3683 61.2922 17.7193 60.6819 17.9621C59.8964 18.2908 59.0485 18.4434 58.1977 18.4092C57.3469 18.3749 56.5139 18.1547 55.7574 17.7639C54.9914 17.3491 54.3558 16.7297 53.9212 15.9747C53.4741 15.186 53.2465 14.2919 53.2621 13.3854C53.2331 12.395 53.4739 11.4153 53.9589 10.5512C54.3976 9.79154 55.0356 9.16626 55.8041 8.74306C56.5714 8.32207 57.4338 8.10478 58.309 8.11196C59.105 8.10259 59.888 8.31449 60.5706 8.72403C61.2498 9.13366 61.8085 9.71577 62.19 10.4112C62.6048 11.1797 62.8125 12.0428 62.7927 12.9159L62.774 13.7444H55.2031C55.2805 14.567 55.6759 15.3269 56.3052 15.8624C56.9728 16.3995 57.8121 16.6771 58.6684 16.6439C59.2519 16.6698 59.8315 16.5363 60.3448 16.2576C60.7163 16.0393 61.0689 15.7905 61.3991 15.5138L62.358 16.926ZM58.309 9.90149C57.6268 9.88592 56.9542 10.0655 56.3705 10.4191C56.0752 10.6241 55.8257 10.8881 55.6376 11.1945C55.4496 11.5008 55.3272 11.8429 55.2782 12.199H60.8151V12.0672C60.784 11.6579 60.6371 11.266 60.3915 10.9372C60.1495 10.6139 59.8351 10.3518 59.4735 10.1719C59.1119 9.99209 58.7132 9.89946 58.3094 9.90149H58.309Z" fill="#E8E8E8"/>
<path id="Path 249" d="M74.8252 13.2723C74.8436 14.2042 74.6127 15.1241 74.1564 15.937C73.7267 16.6932 73.1025 17.3207 72.3486 17.7545C71.5724 18.1982 70.6914 18.4258 69.7973 18.4136C68.9001 18.4251 68.0159 18.1976 67.2356 17.7545C66.4776 17.3229 65.8499 16.6951 65.4185 15.937C64.9796 15.1173 64.75 14.202 64.75 13.2723C64.75 12.3425 64.9796 11.4272 65.4185 10.6075C65.85 9.84953 66.4777 9.22172 67.2356 8.79002C68.0159 8.34689 68.9001 8.11941 69.7973 8.13093C70.6914 8.11871 71.5724 8.3463 72.3486 8.79002C73.1024 9.2239 73.7266 9.85139 74.1564 10.6075C74.6127 11.4204 74.8436 12.3403 74.8252 13.2723ZM72.8476 13.2723C72.8722 12.6618 72.7392 12.0553 72.4613 11.5111C72.2094 11.023 71.8285 10.6132 71.36 10.3265C70.8887 10.0422 70.3473 9.89546 69.797 9.90286C69.2441 9.89476 68.7 10.0411 68.2259 10.3255C67.7517 10.6099 67.3664 11.021 67.1132 11.5125C66.8351 12.0566 66.7021 12.6632 66.727 13.2737C66.7035 13.8779 66.8365 14.4779 67.1132 15.0155C67.368 15.5078 67.7521 15.9213 68.2243 16.2116C68.6974 16.5009 69.2425 16.651 69.797 16.6445C70.3485 16.6517 70.8907 16.5015 71.36 16.2116C71.8278 15.9189 72.2082 15.5058 72.4613 15.0155C72.7381 14.4774 72.8713 13.8769 72.848 13.2723H72.8476Z" fill="#E8E8E8"/>
<path id="Path 250" d="M83.2437 5.04253C83.9274 5.0379 84.5988 5.22441 85.1822 5.58101C85.7693 5.93549 86.2556 6.43457 86.5948 7.03057C86.951 7.65882 87.1331 8.37079 87.1221 9.09292C87.13 9.81457 86.9481 10.5256 86.5948 11.1549C86.2583 11.7604 85.7719 12.2693 85.1822 12.6328C84.6007 12.9946 83.9286 13.1841 83.2437 13.1792H79.9109V18.2265H77.877V5.04253H83.2437ZM83.2057 11.2195C83.5364 11.2222 83.8595 11.1202 84.1286 10.928C84.4099 10.7277 84.6391 10.4629 84.797 10.1559C84.9686 9.82771 85.0559 9.46209 85.0512 9.09184C85.0671 8.54424 84.8719 8.01149 84.5059 7.60387C84.3463 7.41475 84.1473 7.26281 83.9228 7.15869C83.6984 7.05457 83.4538 7.00079 83.2064 7.00113H79.9109V11.2195H83.2057Z" fill="#E8E8E8"/>
<path id="Path 251" d="M99.0618 13.2723C99.0802 14.2042 98.8494 15.1241 98.3934 15.937C97.9635 16.6932 97.3392 17.3207 96.5852 17.7545C95.8089 18.1983 94.9278 18.4259 94.0336 18.4136C93.1364 18.4252 92.2524 18.1977 91.4723 17.7545C90.7142 17.323 90.0865 16.6951 89.6551 15.937C89.2161 15.1174 88.9863 14.202 88.9863 13.2723C88.9863 12.3425 89.2161 11.4271 89.6551 10.6075C90.0866 9.84947 90.7143 9.22164 91.4723 8.79003C92.2524 8.34688 93.1364 8.11939 94.0336 8.13094C94.9278 8.11863 95.8089 8.34622 96.5852 8.79003C97.3391 9.22397 97.9634 9.85144 98.3934 10.6075C98.8494 11.4205 99.0802 12.3404 99.0618 13.2723ZM97.0846 13.2723C97.109 12.6618 96.976 12.0553 96.6983 11.5111C96.4463 11.0229 96.0652 10.6132 95.5966 10.3265C95.1253 10.0422 94.5839 9.89543 94.0336 9.90287C93.4808 9.89483 92.9368 10.0412 92.4627 10.3256C91.9886 10.61 91.6033 11.0211 91.3502 11.5125C91.072 12.0566 90.9389 12.6632 90.9639 13.2737C90.9403 13.8779 91.0734 14.4779 91.3502 15.0155C91.6049 15.5078 91.989 15.9214 92.4613 16.2116C92.9343 16.501 93.4794 16.6511 94.034 16.6445C94.5855 16.6517 95.1277 16.5015 95.597 16.2116C96.0649 15.919 96.4454 15.5058 96.6987 15.0155C96.9751 14.4773 97.108 13.8768 97.0846 13.2723Z" fill="#E8E8E8"/>
<path id="Path 252" d="M107.33 10.9371C106.979 10.5869 106.576 10.2945 106.134 10.0709C105.755 9.86277 105.332 9.74668 104.9 9.732C104.637 9.73204 104.375 9.76374 104.119 9.82641C103.875 9.88197 103.65 10.0023 103.469 10.1746C103.376 10.2738 103.305 10.391 103.259 10.519C103.214 10.647 103.196 10.783 103.205 10.9184C103.2 11.1213 103.255 11.3211 103.364 11.4923C103.473 11.6634 103.631 11.798 103.817 11.8787C104.293 12.0949 104.788 12.2652 105.296 12.387C105.809 12.525 106.313 12.6981 106.803 12.905C107.277 13.1005 107.695 13.4112 108.018 13.809C108.365 14.2924 108.535 14.8811 108.498 15.4753C108.513 16.0466 108.33 16.6055 107.981 17.0577C107.629 17.5024 107.168 17.8494 106.644 18.0654C106.099 18.2972 105.513 18.4157 104.921 18.4136C104.198 18.4121 103.48 18.2813 102.803 18.0273C102.096 17.7624 101.479 17.3017 101.023 16.6991L102.341 15.5694C102.664 15.9462 103.058 16.2565 103.5 16.4826C103.997 16.7164 104.542 16.8295 105.091 16.8125C105.335 16.8117 105.576 16.7703 105.807 16.6901C106.04 16.6117 106.251 16.4759 106.419 16.2953C106.597 16.0897 106.688 15.823 106.673 15.5514C106.68 15.421 106.659 15.2905 106.612 15.1687C106.565 15.0469 106.492 14.9365 106.399 14.845C106.188 14.659 105.942 14.518 105.674 14.4307C105.347 14.3166 105.014 14.2192 104.676 14.1388C104.134 13.9877 103.603 13.8022 103.085 13.5835C102.583 13.3776 102.138 13.0548 101.786 12.6419C101.418 12.1668 101.234 11.5752 101.268 10.9755C101.254 10.4276 101.43 9.89189 101.767 9.45953C102.114 9.02811 102.564 8.69117 103.076 8.47988C103.623 8.24605 104.213 8.12752 104.808 8.13167C105.466 8.14444 106.116 8.27187 106.729 8.50823C107.4 8.74566 107.993 9.16247 108.443 9.71333L107.33 10.9371Z" fill="#E8E8E8"/>
<path id="Path 253" d="M114.259 18.2255H112.32V10.2202H110.266V8.33733H112.319V5.81369H114.257V8.33733H116.555V10.2202H114.257L114.259 18.2255Z" fill="#E8E8E8"/>
<path id="Path 254" d="M119.928 13.2723C119.917 13.8821 120.07 14.4837 120.371 15.0141C120.652 15.5082 121.053 15.9229 121.538 16.2192C122.005 16.5097 122.543 16.663 123.092 16.6618C123.676 16.6751 124.25 16.5038 124.731 16.1722C125.151 15.8856 125.531 15.5436 125.86 15.1556L126.934 16.4737C126.664 16.844 126.332 17.1655 125.954 17.4247C125.52 17.73 125.045 17.9711 124.542 18.1405C124.009 18.3233 123.449 18.4155 122.885 18.4133C122.021 18.4252 121.171 18.1905 120.436 17.7366C119.708 17.2853 119.113 16.6483 118.713 15.8911C118.298 15.0792 118.082 14.1805 118.082 13.2688C118.082 12.3571 118.298 11.4583 118.713 10.6464C119.116 9.89333 119.71 9.26002 120.436 8.81058C121.171 8.35638 122.02 8.12114 122.884 8.13246C123.733 8.11676 124.573 8.30733 125.332 8.6878C125.991 9.00695 126.547 9.50647 126.933 10.1284L125.86 11.4469C125.538 10.9905 125.116 10.6136 124.626 10.3452C124.158 10.0567 123.622 9.89739 123.073 9.88356C122.508 9.87642 121.953 10.0299 121.472 10.3262C120.995 10.6206 120.605 11.0365 120.342 11.5313C120.059 12.0674 119.917 12.6664 119.928 13.2723Z" fill="#E8E8E8"/>
<path id="Path 255" d="M138.685 13.2723C138.703 14.2042 138.472 15.1241 138.017 15.937C137.587 16.6932 136.962 17.3207 136.208 17.7545C135.432 18.1983 134.551 18.4259 133.657 18.4136C132.759 18.4251 131.875 18.1977 131.095 17.7545C130.337 17.3229 129.709 16.6951 129.278 15.937C128.839 15.1173 128.609 14.202 128.609 13.2723C128.609 12.3425 128.839 11.4272 129.278 10.6075C129.709 9.84954 130.337 9.22172 131.095 8.79003C131.875 8.34688 132.759 8.1194 133.657 8.13094C134.551 8.11863 135.432 8.34622 136.208 8.79003C136.962 9.22397 137.586 9.85144 138.017 10.6075C138.472 11.4205 138.703 12.3404 138.685 13.2723ZM136.707 13.2723C136.732 12.6618 136.599 12.0553 136.321 11.5111C136.069 11.023 135.689 10.6133 135.22 10.3265C134.749 10.0422 134.207 9.89543 133.657 9.90287C133.104 9.89468 132.56 10.041 132.086 10.3254C131.612 10.6098 131.226 11.021 130.973 11.5125C130.695 12.0565 130.562 12.6632 130.587 13.2737C130.563 13.8779 130.696 14.4779 130.973 15.0155C131.228 15.5078 131.612 15.9213 132.084 16.2116C132.557 16.5009 133.102 16.651 133.657 16.6445C134.208 16.6517 134.75 16.5015 135.22 16.2116C135.687 15.9189 136.068 15.5058 136.321 15.0155C136.598 14.4773 136.731 13.8769 136.707 13.2723Z" fill="#E8E8E8"/>
<path id="Path 256" d="M150.512 4.28949V18.2255H148.573V16.8319C148.222 17.2744 147.787 17.6424 147.293 17.9146C146.709 18.2521 146.045 18.4246 145.371 18.4136C144.522 18.4251 143.686 18.1967 142.961 17.7545C142.241 17.3103 141.655 16.6789 141.266 15.9276C140.857 15.1005 140.645 14.1903 140.645 13.2676C140.645 12.3449 140.857 11.4347 141.266 10.6076C141.654 9.86408 142.232 9.23698 142.942 8.79039C143.654 8.34852 144.477 8.1198 145.315 8.1313C145.93 8.12805 146.538 8.25561 147.1 8.50553C147.661 8.75546 148.164 9.12202 148.573 9.58087V4.28949H150.512ZM145.632 16.7375C146.193 16.7496 146.744 16.5923 147.214 16.2859C147.673 15.976 148.038 15.546 148.269 15.0428C148.517 14.484 148.645 13.8794 148.645 13.268C148.645 12.6565 148.517 12.0519 148.269 11.4932C148.036 10.9937 147.671 10.5671 147.214 10.2593C146.744 9.95299 146.193 9.79559 145.632 9.80774C145.077 9.79735 144.533 9.95477 144.069 10.2593C143.61 10.5682 143.243 10.9942 143.005 11.4932C142.75 12.0502 142.619 12.6555 142.619 13.268C142.619 13.8804 142.75 14.4857 143.005 15.0428C143.241 15.5455 143.609 15.975 144.069 16.2859C144.533 16.5905 145.077 16.7479 145.632 16.7375Z" fill="#E8E8E8"/>
<path id="Path 257" d="M162.131 16.926H162.112C161.627 17.3683 161.066 17.7192 160.455 17.9621C159.67 18.2908 158.822 18.4434 157.971 18.4092C157.12 18.3749 156.287 18.1547 155.531 17.7639C154.765 17.3491 154.129 16.7297 153.695 15.9747C153.248 15.186 153.02 14.2919 153.036 13.3854C153.006 12.395 153.247 11.4153 153.732 10.5512C154.171 9.79149 154.809 9.16621 155.578 8.74306C156.345 8.32207 157.207 8.10478 158.082 8.11196C158.878 8.10259 159.661 8.31449 160.344 8.72403C161.023 9.13367 161.582 9.71578 161.963 10.4112C162.378 11.1796 162.586 12.0428 162.566 12.9159L162.548 13.7444H154.975C155.052 14.567 155.447 15.327 156.076 15.8624C156.744 16.3995 157.583 16.6771 158.44 16.6439C159.023 16.6698 159.603 16.5363 160.116 16.2576C160.488 16.0393 160.84 15.7905 161.17 15.5138L162.131 16.926ZM158.082 9.90185C157.4 9.88628 156.727 10.0659 156.144 10.4195C155.848 10.6245 155.599 10.8885 155.411 11.1948C155.223 11.5012 155.1 11.8432 155.051 12.1993H160.588V12.0676C160.557 11.6583 160.41 11.2664 160.164 10.9375C159.922 10.6142 159.608 10.3521 159.246 10.1723C158.885 9.99244 158.486 9.89982 158.082 9.90185Z" fill="#E8E8E8"/>
<path id="Path 258" d="M170.832 10.9371C170.481 10.5869 170.078 10.2945 169.636 10.0709C169.257 9.86278 168.834 9.7467 168.403 9.73201C168.139 9.73205 167.877 9.76375 167.621 9.82643C167.377 9.88207 167.152 10.0023 166.971 10.1746C166.878 10.2738 166.807 10.391 166.762 10.519C166.716 10.647 166.698 10.783 166.707 10.9185C166.702 11.1211 166.757 11.3208 166.866 11.4919C166.975 11.663 167.132 11.7977 167.318 11.8787C167.793 12.0949 168.288 12.2651 168.796 12.387C169.31 12.525 169.814 12.6981 170.304 12.9051C170.778 13.1005 171.195 13.4112 171.519 13.809C171.866 14.2925 172.036 14.8811 171.999 15.4754C172.013 16.0466 171.83 16.6053 171.481 17.0574C171.129 17.5021 170.668 17.849 170.144 18.065C169.599 18.2969 169.013 18.4153 168.421 18.4133C167.698 18.4118 166.98 18.2809 166.303 18.027C165.596 17.7621 164.979 17.3014 164.523 16.6988L165.842 15.5698C166.165 15.9466 166.559 16.2568 167 16.483C167.497 16.7168 168.043 16.8298 168.592 16.8129C168.835 16.8121 169.077 16.7707 169.307 16.6905C169.541 16.6122 169.752 16.4764 169.92 16.2956C170.098 16.09 170.189 15.8233 170.174 15.5518C170.181 15.4214 170.16 15.2909 170.113 15.1691C170.066 15.0473 169.993 14.9369 169.9 14.8453C169.689 14.6593 169.443 14.5183 169.175 14.4311C168.848 14.3169 168.515 14.2195 168.177 14.1392C167.635 13.9881 167.104 13.8026 166.586 13.5839C166.084 13.378 165.638 13.0552 165.286 12.6423C164.919 12.1672 164.735 11.5756 164.768 10.9759C164.754 10.428 164.931 9.89227 165.268 9.45991C165.615 9.02849 166.065 8.69154 166.576 8.48025C167.124 8.24639 167.714 8.12785 168.309 8.13203C168.966 8.14481 169.617 8.27225 170.23 8.50861C170.901 8.74603 171.494 9.16285 171.944 9.71371L170.832 10.9371Z" fill="#E8E8E8"/>
</g>
<path id="Exclusion 3" d="M19.213 24.7485C17.7554 24.7517 16.321 24.3842 15.0445 23.6805C13.768 22.9768 12.6914 21.96 11.916 20.7258L16.3035 13.1287C16.3027 13.1229 16.3033 13.1169 16.3051 13.1114C16.3069 13.1058 16.3099 13.1007 16.3139 13.0964C17.0553 11.7917 17.4458 10.3172 17.4476 8.8166C17.4507 7.18483 16.9909 5.58564 16.1215 4.20477L18.0582 0.845067C18.1755 0.642499 18.344 0.474333 18.5468 0.357428C18.7497 0.240523 18.9796 0.178986 19.2137 0.178986C19.4478 0.178986 19.6778 0.240523 19.8806 0.357428C20.0834 0.474333 20.252 0.642499 20.3693 0.845067L26.6924 11.813C26.7024 11.813 26.7024 11.8234 26.7024 11.8342C27.4546 13.1462 27.8485 14.6329 27.8447 16.1452C27.8409 17.6576 27.4396 19.1423 26.6809 20.4505C25.9222 21.7588 24.8329 22.8445 23.5221 23.5989C22.2114 24.3533 20.7253 24.7497 19.213 24.7485ZM19.213 13.8398C18.6264 13.84 18.053 14.014 17.5653 14.34C17.0776 14.666 16.6976 15.1293 16.4731 15.6713C16.2487 16.2133 16.19 16.8096 16.3045 17.3849C16.419 17.9603 16.7015 18.4887 17.1163 18.9035C17.5311 19.3183 18.0595 19.6008 18.6349 19.7153C19.2102 19.8298 19.8066 19.7711 20.3485 19.5467C20.8905 19.3223 21.3538 18.9422 21.6798 18.4545C22.0058 17.9668 22.1799 17.3934 22.18 16.8068C22.1793 16.0201 21.8665 15.2658 21.3103 14.7096C20.754 14.1533 19.9997 13.8405 19.213 13.8398Z" fill="#66C3FF"/>
<path id="Path 261" d="M17.4472 8.81513C17.4478 10.3161 17.0569 11.7912 16.3132 13.0949C16.3091 13.0991 16.306 13.1041 16.3041 13.1097C16.3023 13.1152 16.3017 13.1211 16.3024 13.1269L11.9156 20.7236C11.0759 19.4 10.6141 17.872 10.5801 16.3049C10.5462 14.7377 10.9413 13.1911 11.7229 11.8324C11.7229 11.8216 11.7229 11.8108 11.7336 11.8108L16.1207 4.20331C16.9913 5.58368 17.4513 7.18317 17.4472 8.81513Z" fill="#3376AF"/>
</g>
</g>
<defs>
<clipPath id="clip0_117_51683">
<rect width="172" height="24.9305" fill="white"/>
</clipPath>
</defs>
</svg>
