<svg width="481" height="246" viewBox="0 0 481 246" fill="none" xmlns="http://www.w3.org/2000/svg">
<g clip-path="url(#clip0_146_10573)">
<g opacity="0.5">
<path d="M137.662 120.312L143.59 116.852L122.925 109.038L116.988 112.498L137.662 120.312Z" fill="url(#paint0_linear_146_10573)"/>
</g>
<path d="M177.806 116.78L183.776 113.308L142.436 97.6773L136.469 101.152L177.806 116.78Z" fill="url(#paint1_linear_146_10573)"/>
<path d="M202.08 116.582L208.017 113.119L152.168 92L146.232 95.4631L202.08 116.582Z" fill="url(#paint2_linear_146_10573)"/>
<path d="M201.127 125.605L207.098 122.133L189.469 115.46L183.504 118.934L201.127 125.605Z" fill="url(#paint3_linear_146_10573)"/>
<path d="M148.555 133.824L154.521 130.342L113.186 114.709L107.221 118.189L148.555 133.824Z" fill="url(#paint4_linear_146_10573)"/>
<path d="M194.01 132.272L199.944 128.807L132.658 103.363L126.723 106.827L194.01 132.272Z" fill="url(#paint5_linear_146_10573)"/>
<path d="M171.887 142.644L177.848 139.165L160.225 132.497L154.254 135.974L171.887 142.644Z" fill="url(#paint6_linear_146_10573)"/>
<path d="M204.511 145.594L210.451 142.14L150.134 119.329L144.195 122.788L204.511 145.594Z" fill="url(#paint7_linear_146_10573)"/>
<path d="M162.145 148.315L168.084 144.856L103.421 120.407L97.4863 123.863L162.145 148.315Z" fill="url(#paint8_linear_146_10573)"/>
<path d="M199.905 153.24L205.865 149.76L185.892 142.211L179.93 145.683L199.905 153.24Z" fill="url(#paint9_linear_146_10573)"/>
<path d="M168.341 160.014L174.28 156.555L114.345 133.895L108.412 137.356L168.341 160.014Z" fill="url(#paint10_linear_146_10573)"/>
<path d="M199.794 162.548L205.728 159.09L176.127 147.895L170.191 151.359L199.794 162.548Z" fill="url(#paint11_linear_146_10573)"/>
<path d="M190.603 177.811L196.562 174.34L156.651 159.245L150.686 162.718L190.603 177.811Z" fill="url(#paint12_linear_146_10573)"/>
<path d="M160.808 185.261L166.737 181.799L137.14 170.611L131.205 174.064L160.808 185.261Z" fill="url(#paint13_linear_146_10573)"/>
<path d="M184.439 184.843L190.405 181.364L146.913 164.922L140.939 168.392L184.439 184.843Z" fill="url(#paint14_linear_146_10573)"/>
<path d="M161.35 194.852L167.316 191.375L127.397 176.279L121.439 179.758L161.35 194.852Z" fill="url(#paint15_linear_146_10573)"/>
<g opacity="0.8">
<path d="M103.443 135.475L109.387 132.019L93.6756 126.076L87.7422 129.535L103.443 135.475Z" fill="url(#paint16_linear_146_10573)"/>
<path d="M119.315 150.854L125.286 147.386L83.942 131.748L77.9746 135.224L119.315 150.854Z" fill="url(#paint17_linear_146_10573)"/>
<path d="M124.087 162.016L130.056 158.542L74.1992 137.423L68.2344 140.896L124.087 162.016Z" fill="url(#paint18_linear_146_10573)"/>
</g>
<g opacity="0.5">
<path d="M99.8383 162.206L105.77 158.745L64.4339 143.118L58.4922 146.567L99.8383 162.206Z" fill="url(#paint19_linear_146_10573)"/>
</g>
<g opacity="0.5">
<path d="M123.16 171.025L129.102 167.567L111.469 160.9L105.529 164.359L123.16 171.025Z" fill="url(#paint20_linear_146_10573)"/>
</g>
<path d="M59.6566 165.752L65.619 162.276L44.9547 154.457L38.9902 157.937L59.6566 165.752Z" fill="url(#paint21_linear_146_10573)"/>
<path d="M70.5854 179.24L76.529 175.785L35.1846 160.15L29.25 163.613L70.5854 179.24Z" fill="url(#paint22_linear_146_10573)"/>
<path d="M116.008 177.703L121.972 174.23L54.6947 148.787L48.7305 152.261L116.008 177.703Z" fill="url(#paint23_linear_146_10573)"/>
<path d="M25.4473 180.912L31.4124 177.438L15.7136 171.496L9.74414 174.973L25.4473 180.912Z" fill="url(#paint24_linear_146_10573)"/>
<path d="M93.9137 188.062L99.856 184.605L82.2204 177.933L76.2852 181.397L93.9137 188.062Z" fill="url(#paint25_linear_146_10573)"/>
<path d="M126.518 191.037L132.484 187.561L72.1638 164.749L66.1973 168.226L126.518 191.037Z" fill="url(#paint26_linear_146_10573)"/>
<path d="M84.1485 193.757L90.1111 190.276L25.4448 165.825L19.4805 169.299L84.1485 193.757Z" fill="url(#paint27_linear_146_10573)"/>
<path d="M41.3436 196.279L47.2809 192.821L5.9349 177.187L0 180.648L41.3436 196.279Z" fill="url(#paint28_linear_146_10573)"/>
<path d="M121.935 198.658L127.873 195.198L107.896 187.648L101.955 191.102L121.935 198.658Z" fill="url(#paint29_linear_146_10573)"/>
<path d="M90.343 205.453L96.3073 201.978L36.3754 179.313L30.4102 182.787L90.343 205.453Z" fill="url(#paint30_linear_146_10573)"/>
<path d="M121.791 207.991L127.758 204.511L98.1607 193.316L92.1855 196.793L121.791 207.991Z" fill="url(#paint31_linear_146_10573)"/>
<path d="M112.63 223.236L118.562 219.776L78.6518 204.683L72.7129 208.143L112.63 223.236Z" fill="url(#paint32_linear_146_10573)"/>
<g opacity="0.9">
<path d="M64.6695 205.097L70.6038 201.641L52.9772 194.975L47.0391 198.431L64.6695 205.097Z" fill="url(#paint33_linear_146_10573)"/>
</g>
<g opacity="0.8">
<path d="M192.301 234.655L198.268 231.177L165.862 218.923L159.895 222.396L192.301 234.655Z" fill="url(#paint34_linear_146_10573)"/>
</g>
<g opacity="0.8">
<path d="M211.812 223.288L217.782 219.814L194.182 210.894L188.221 214.369L211.812 223.288Z" fill="url(#paint35_linear_146_10573)"/>
</g>
<g opacity="0.5">
<path d="M202.071 228.961L208.01 225.502L147.81 202.739L141.875 206.198L202.071 228.961Z" fill="url(#paint36_linear_146_10573)"/>
</g>
<g opacity="0.5">
<path d="M182.568 240.328L188.535 236.854L167.863 229.033L161.898 232.508L182.568 240.328Z" fill="url(#paint37_linear_146_10573)"/>
</g>
<path d="M172.826 246L178.763 242.541L137.427 226.909L131.488 230.367L172.826 246Z" fill="url(#paint38_linear_146_10573)"/>
<g opacity="0.81">
<path d="M238.777 139.839L244.739 136.361L215.141 125.17L209.172 128.646L238.777 139.839Z" fill="url(#paint39_linear_146_10573)"/>
<path d="M262.442 139.4L268.378 135.946L224.883 119.496L218.943 122.956L262.442 139.4Z" fill="url(#paint40_linear_146_10573)"/>
<path d="M239.347 149.412L245.288 145.952L205.369 130.855L199.439 134.317L239.347 149.412Z" fill="url(#paint41_linear_146_10573)"/>
</g>
<g opacity="0.81">
<path d="M280.041 183.539L286.008 180.067L225.811 157.299L219.844 160.777L280.041 183.539Z" fill="url(#paint42_linear_146_10573)"/>
</g>
<g opacity="0.5">
<path d="M260.56 194.888L266.497 191.43L245.839 183.613L239.889 187.073L260.56 194.888Z" fill="url(#paint43_linear_146_10573)"/>
</g>
<g opacity="0.5">
<path d="M250.796 200.577L256.765 197.104L215.426 181.47L209.455 184.941L250.796 200.577Z" fill="url(#paint44_linear_146_10573)"/>
<path d="M241.057 206.253L247.023 202.773L205.685 187.146L199.719 190.622L241.057 206.253Z" fill="url(#paint45_linear_146_10573)"/>
<path d="M231.315 211.924L237.251 208.466L221.056 202.336L215.117 205.797L231.315 211.924Z" fill="url(#paint46_linear_146_10573)"/>
</g>
<path d="M221.556 217.617L227.514 214.14L174.664 194.156L168.699 197.627L221.556 217.617Z" fill="url(#paint47_linear_146_10573)"/>
<g opacity="0.5">
<path d="M142.637 159.676L148.602 156.201L130.975 149.538L125.008 153.015L142.637 159.676Z" fill="url(#paint48_linear_146_10573)"/>
</g>
<g opacity="0.81">
<path d="M270.303 189.214L276.239 185.753L243.835 173.502L237.898 176.959L270.303 189.214Z" fill="url(#paint49_linear_146_10573)"/>
</g>
<path d="M289.813 177.854L295.748 174.395L272.156 165.472L266.219 168.931L289.813 177.854Z" fill="url(#paint50_linear_146_10573)"/>
<g opacity="0.81">
<path d="M319.053 160.818L324.999 157.355L283.658 141.722L277.715 145.183L319.053 160.818Z" fill="url(#paint51_linear_146_10573)"/>
<path d="M309.287 166.503L315.261 163.027L299.049 156.895L293.084 160.374L309.287 166.503Z" fill="url(#paint52_linear_146_10573)"/>
<path d="M299.547 172.175L305.49 168.714L252.635 148.731L246.699 152.193L299.547 172.175Z" fill="url(#paint53_linear_146_10573)"/>
</g>
</g>
<g clip-path="url(#clip1_146_10573)">
<g opacity="0.5">
<path d="M293.662 28.3116L299.59 24.8518L278.925 17.0375L272.988 20.4981L293.662 28.3116Z" fill="url(#paint54_linear_146_10573)"/>
</g>
<path d="M333.806 24.78L339.776 21.3075L298.436 5.67731L292.469 9.15246L333.806 24.78Z" fill="url(#paint55_linear_146_10573)"/>
<path d="M358.08 24.5821L364.017 21.1192L308.168 0L302.232 3.46305L358.08 24.5821Z" fill="url(#paint56_linear_146_10573)"/>
<path d="M357.127 33.6048L363.098 30.1332L345.469 23.4601L339.504 26.934L357.127 33.6048Z" fill="url(#paint57_linear_146_10573)"/>
<path d="M304.555 41.824L310.521 38.3425L269.186 22.7093L263.221 26.1893L304.555 41.824Z" fill="url(#paint58_linear_146_10573)"/>
<path d="M350.01 40.272L355.944 36.8071L288.658 11.3629L282.723 14.8268L350.01 40.272Z" fill="url(#paint59_linear_146_10573)"/>
<path d="M327.887 50.6437L333.848 47.1651L316.225 40.4969L310.254 43.9745L327.887 50.6437Z" fill="url(#paint60_linear_146_10573)"/>
<path d="M360.511 53.5941L366.451 50.1402L306.134 27.3293L300.195 30.788L360.511 53.5941Z" fill="url(#paint61_linear_146_10573)"/>
<path d="M318.145 56.3149L324.084 52.8562L259.421 28.4068L253.486 31.8629L318.145 56.3149Z" fill="url(#paint62_linear_146_10573)"/>
<path d="M355.905 61.2397L361.865 57.7602L341.892 50.2105L335.93 53.6828L355.905 61.2397Z" fill="url(#paint63_linear_146_10573)"/>
<path d="M324.341 68.0136L330.28 64.5548L270.345 41.895L264.412 45.3562L324.341 68.0136Z" fill="url(#paint64_linear_146_10573)"/>
<path d="M355.794 70.5485L361.728 67.0898L332.127 55.8951L326.191 59.3591L355.794 70.5485Z" fill="url(#paint65_linear_146_10573)"/>
<path d="M346.603 85.8106L352.562 82.3401L312.651 67.2445L306.686 70.7185L346.603 85.8106Z" fill="url(#paint66_linear_146_10573)"/>
<path d="M316.808 93.2608L322.737 89.7991L293.14 78.6107L287.205 82.0643L316.808 93.2608Z" fill="url(#paint67_linear_146_10573)"/>
<path d="M340.439 92.8428L346.405 89.3638L302.913 72.9219L296.939 76.3922L340.439 92.8428Z" fill="url(#paint68_linear_146_10573)"/>
<path d="M317.35 102.852L323.316 99.3755L283.397 84.2787L277.439 87.7583L317.35 102.852Z" fill="url(#paint69_linear_146_10573)"/>
<g opacity="0.8">
<path d="M259.443 43.4746L265.387 40.019L249.676 34.0761L243.742 37.5346L259.443 43.4746Z" fill="url(#paint70_linear_146_10573)"/>
<path d="M275.315 58.854L281.286 55.3857L239.942 39.7476L233.975 43.2243L275.315 58.854Z" fill="url(#paint71_linear_146_10573)"/>
<path d="M280.087 70.0158L286.056 66.5424L230.199 45.4226L224.234 48.8963L280.087 70.0158Z" fill="url(#paint72_linear_146_10573)"/>
</g>
<g opacity="0.5">
<path d="M255.838 70.2065L261.77 66.7446L220.434 51.118L214.492 54.5668L255.838 70.2065Z" fill="url(#paint73_linear_146_10573)"/>
</g>
<g opacity="0.5">
<path d="M279.16 79.0249L285.102 75.5675L267.469 68.8997L261.529 72.3587L279.16 79.0249Z" fill="url(#paint74_linear_146_10573)"/>
</g>
<path d="M215.657 73.7517L221.619 70.2764L200.955 62.4573L194.99 65.9367L215.657 73.7517Z" fill="url(#paint75_linear_146_10573)"/>
<path d="M226.585 87.2402L232.529 83.7846L191.185 68.1497L185.25 71.6132L226.585 87.2402Z" fill="url(#paint76_linear_146_10573)"/>
<path d="M272.008 85.7035L277.972 82.2302L210.695 56.7866L204.73 60.2615L272.008 85.7035Z" fill="url(#paint77_linear_146_10573)"/>
<path d="M181.447 88.9116L187.412 85.4375L171.714 79.4963L165.744 82.9727L181.447 88.9116Z" fill="url(#paint78_linear_146_10573)"/>
<path d="M249.914 96.0618L255.856 92.6055L238.22 85.9332L232.285 89.3971L249.914 96.0618Z" fill="url(#paint79_linear_146_10573)"/>
<path d="M282.518 99.0367L288.484 95.5606L228.164 72.7485L222.197 76.2261L282.518 99.0367Z" fill="url(#paint80_linear_146_10573)"/>
<path d="M240.149 101.757L246.111 98.276L181.445 73.8254L175.48 77.2989L240.149 101.757Z" fill="url(#paint81_linear_146_10573)"/>
<path d="M197.344 104.279L203.281 100.821L161.935 85.1874L156 88.6483L197.344 104.279Z" fill="url(#paint82_linear_146_10573)"/>
<path d="M277.935 106.658L283.873 103.198L263.896 95.6478L257.955 99.1019L277.935 106.658Z" fill="url(#paint83_linear_146_10573)"/>
<path d="M246.343 113.453L252.307 109.978L192.375 87.313L186.41 90.787L246.343 113.453Z" fill="url(#paint84_linear_146_10573)"/>
<path d="M277.791 115.991L283.758 112.511L254.161 101.316L248.186 104.793L277.791 115.991Z" fill="url(#paint85_linear_146_10573)"/>
<path d="M268.63 131.236L274.562 127.776L234.652 112.683L228.713 116.143L268.63 131.236Z" fill="url(#paint86_linear_146_10573)"/>
<g opacity="0.9">
<path d="M220.669 113.097L226.604 109.641L208.977 102.975L203.039 106.431L220.669 113.097Z" fill="url(#paint87_linear_146_10573)"/>
</g>
<g opacity="0.8">
<path d="M348.301 142.655L354.268 139.177L321.862 126.923L315.895 130.396L348.301 142.655Z" fill="url(#paint88_linear_146_10573)"/>
</g>
<g opacity="0.8">
<path d="M367.812 131.288L373.782 127.814L350.182 118.894L344.221 122.369L367.812 131.288Z" fill="url(#paint89_linear_146_10573)"/>
</g>
<g opacity="0.5">
<path d="M358.071 136.961L364.01 133.502L303.81 110.739L297.875 114.198L358.071 136.961Z" fill="url(#paint90_linear_146_10573)"/>
</g>
<g opacity="0.5">
<path d="M338.568 148.328L344.535 144.853L323.863 137.033L317.898 140.508L338.568 148.328Z" fill="url(#paint91_linear_146_10573)"/>
</g>
<path d="M328.826 154L334.763 150.541L293.427 134.909L287.488 138.367L328.826 154Z" fill="url(#paint92_linear_146_10573)"/>
<g opacity="0.81">
<path d="M394.777 47.8387L400.739 44.361L371.141 33.1701L365.172 36.6465L394.777 47.8387Z" fill="url(#paint93_linear_146_10573)"/>
<path d="M418.442 47.4002L424.378 43.9463L380.883 27.4957L374.943 30.9565L418.442 47.4002Z" fill="url(#paint94_linear_146_10573)"/>
<path d="M395.347 57.4121L401.288 53.9522L361.369 38.8552L355.439 42.3172L395.347 57.4121Z" fill="url(#paint95_linear_146_10573)"/>
</g>
<g opacity="0.81">
<path d="M436.041 91.5391L442.008 88.0668L381.811 65.2991L375.844 68.7773L436.041 91.5391Z" fill="url(#paint96_linear_146_10573)"/>
</g>
<g opacity="0.5">
<path d="M416.56 102.888L422.497 99.4301L401.839 91.6132L395.889 95.0729L416.56 102.888Z" fill="url(#paint97_linear_146_10573)"/>
</g>
<g opacity="0.5">
<path d="M406.796 108.577L412.765 105.104L371.426 89.4699L365.455 92.9414L406.796 108.577Z" fill="url(#paint98_linear_146_10573)"/>
<path d="M397.057 114.253L403.023 110.773L361.685 95.1458L355.719 98.6219L397.057 114.253Z" fill="url(#paint99_linear_146_10573)"/>
<path d="M387.315 119.924L393.251 116.466L377.056 110.336L371.117 113.796L387.315 119.924Z" fill="url(#paint100_linear_146_10573)"/>
</g>
<path d="M377.556 125.617L383.514 122.14L330.664 102.156L324.699 105.627L377.556 125.617Z" fill="url(#paint101_linear_146_10573)"/>
<g opacity="0.5">
<path d="M298.637 67.6757L304.602 64.2007L286.975 57.5379L281.008 61.0146L298.637 67.6757Z" fill="url(#paint102_linear_146_10573)"/>
</g>
<g opacity="0.81">
<path d="M426.303 97.2141L432.239 93.7527L399.835 81.5018L393.898 84.9594L426.303 97.2141Z" fill="url(#paint103_linear_146_10573)"/>
</g>
<path d="M445.813 85.8539L451.748 82.3945L428.156 73.4717L422.219 76.9308L445.813 85.8539Z" fill="url(#paint104_linear_146_10573)"/>
<g opacity="0.81">
<path d="M475.053 68.8183L480.999 65.3554L439.658 49.7219L433.715 53.1829L475.053 68.8183Z" fill="url(#paint105_linear_146_10573)"/>
<path d="M465.287 74.5028L471.261 71.0271L455.049 64.895L449.084 68.3745L465.287 74.5028Z" fill="url(#paint106_linear_146_10573)"/>
<path d="M455.547 80.1752L461.49 76.7142L408.635 56.7313L402.699 60.1929L455.547 80.1752Z" fill="url(#paint107_linear_146_10573)"/>
</g>
</g>
<path style="mix-blend-mode:multiply" d="M252.567 68.4098C265.802 61.1466 265.818 49.3708 252.596 42.1159C239.375 34.8592 217.926 34.8677 204.686 42.1294C191.451 49.3945 191.438 61.1685 204.662 68.4285C217.883 75.6852 239.331 75.6767 252.567 68.4098Z" fill="url(#paint108_linear_146_10573)"/>
<path d="M188 52.2989C188.013 46.597 191.983 40.8953 199.916 36.542C215.794 27.8286 241.516 27.8168 257.374 36.5217C265.309 40.8767 269.268 46.5887 269.256 52.2989V58.1107C269.245 63.8157 265.273 69.5174 257.338 73.8724C241.464 82.5841 215.74 82.5926 199.884 73.8894C191.947 69.5344 187.989 63.8224 188 58.1107V52.2989ZM204.662 65.4569C217.883 72.7135 239.33 72.705 252.567 65.4382C257.838 62.5433 260.974 58.9344 262.052 55.1818C260.979 51.4394 257.852 47.8373 252.596 44.9542C239.375 37.6993 217.926 37.706 204.685 44.9712C199.418 47.8643 196.279 51.4749 195.204 55.2276C196.279 58.9735 199.405 62.5705 204.662 65.4569Z" fill="#66C3FF"/>
<path d="M261.565 56.5437C261.755 56.0936 261.923 55.635 262.053 55.1816C260.98 51.4392 257.853 47.8371 252.596 44.954C249.532 43.2723 246.008 41.9966 242.264 41.0964V35.2847C246.008 36.1849 249.532 37.4588 252.596 39.144C261.195 43.861 264.156 50.4867 261.565 56.5437Z" fill="#3375B0"/>
<path d="M243.027 36.2271C246.476 37.1254 249.562 38.3149 252.21 39.7734C258.456 43.1994 261.795 47.6863 261.71 52.3781C260.047 49.3225 257.079 46.5747 252.975 44.3245C250.108 42.751 246.765 41.4754 243.027 40.5346V36.2271Z" fill="#3375B0"/>
<path d="M188 52.2987C187.989 58.0122 191.947 63.7242 199.884 68.0792C200.948 68.6611 202.064 69.2026 203.214 69.7067V75.5168C202.064 75.0126 200.948 74.4729 199.884 73.8892C191.947 69.5342 187.989 63.8222 188 58.1105V52.2987Z" fill="#3375B0"/>
<path d="M199.916 36.542C215.794 27.8286 241.516 27.8168 257.374 36.5217C273.231 45.225 273.215 59.3473 257.338 68.0589C241.464 76.7723 215.74 76.7808 199.884 68.0794C184.024 59.3728 184.042 45.2538 199.916 36.542ZM252.567 65.4381C265.802 58.1749 265.818 46.3991 252.595 39.1442C239.375 31.8876 217.925 31.896 204.685 39.1577C191.451 46.4229 191.438 58.1969 204.662 65.4569C217.883 72.7135 239.33 72.705 252.567 65.4381Z" fill="white"/>
<path d="M265.135 76.644C266.43 77.3597 268.094 76.9351 268.843 75.6999C269.594 74.4648 269.15 72.8879 267.847 72.1774L260.198 67.9781C258.903 67.2624 257.242 67.6853 256.489 68.9222C255.742 70.1573 256.187 71.734 257.486 72.448L265.135 76.644Z" fill="white"/>
<path d="M301.141 101.664L265.331 79.8143C264.631 79.4285 264.197 78.5962 264.193 77.4203C264.193 75.0601 265.936 72.1872 268.084 71.0112C269.155 70.4208 270.13 70.3667 270.835 70.7576V70.7541L308.63 89.3162H308.639V89.3195C309.598 89.8441 310.187 90.9759 310.192 92.5849C310.192 95.7961 307.818 99.7078 304.894 101.312C303.43 102.117 302.106 102.19 301.145 101.664H301.141Z" fill="white"/>
<path d="M308.64 89.3161V89.3194C309.6 89.844 310.189 90.9758 310.194 92.5849C310.194 95.7961 307.82 99.7077 304.896 101.312C303.431 102.117 302.107 102.19 301.147 101.664H301.143L295.416 98.1681C294.836 97.5659 294.477 96.6623 294.477 95.4595C294.482 92.314 296.797 88.4938 299.659 86.9236C300.75 86.3214 301.748 86.1674 302.581 86.3417L308.631 89.3161H308.64Z" fill="#66C3FF"/>
<path d="M265.331 79.8144C264.631 79.4285 264.197 78.5962 264.193 77.4204C264.193 77.2054 264.225 76.9855 264.252 76.7622L305.734 100.757C305.455 100.956 305.181 101.153 304.894 101.312C303.43 102.117 302.106 102.19 301.145 101.664H301.141L265.331 79.8144Z" fill="#3375B0"/>
<path d="M299.594 98.3984C299.594 95.1838 301.966 91.272 304.89 89.6664C307.819 88.0624 310.193 89.367 310.193 92.585C310.193 95.7962 307.819 99.7079 304.895 101.312C301.966 102.919 299.594 101.615 299.594 98.3984Z" fill="white"/>
<defs>
<linearGradient id="paint0_linear_146_10573" x1="124.317" y1="252.325" x2="124.12" y2="38.2637" gradientUnits="userSpaceOnUse">
<stop offset="0.00341" stop-color="#C2E7FF"/>
<stop offset="1" stop-color="#A2C8E5"/>
</linearGradient>
<linearGradient id="paint1_linear_146_10573" x1="149.612" y1="258.921" x2="149.408" y2="37.9177" gradientUnits="userSpaceOnUse">
<stop offset="0.00341" stop-color="#C2E7FF"/>
<stop offset="1" stop-color="#A2C8E5"/>
</linearGradient>
<linearGradient id="paint2_linear_146_10573" x1="164.34" y1="261.968" x2="164.134" y2="38.355" gradientUnits="userSpaceOnUse">
<stop offset="0.00341" stop-color="#C2E7FF"/>
<stop offset="1" stop-color="#A2C8E5"/>
</linearGradient>
<linearGradient id="paint3_linear_146_10573" x1="184.781" y1="254.194" x2="184.585" y2="41.9253" gradientUnits="userSpaceOnUse">
<stop offset="0.00341" stop-color="#C2E7FF"/>
<stop offset="1" stop-color="#A2C8E5"/>
</linearGradient>
<linearGradient id="paint4_linear_146_10573" x1="126.206" y1="255.5" x2="126.002" y2="34.4368" gradientUnits="userSpaceOnUse">
<stop offset="0.00341" stop-color="#C2E7FF"/>
<stop offset="1" stop-color="#A2C8E5"/>
</linearGradient>
<linearGradient id="paint5_linear_146_10573" x1="154.283" y1="260.381" x2="154.075" y2="35.3776" gradientUnits="userSpaceOnUse">
<stop offset="0.00341" stop-color="#C2E7FF"/>
<stop offset="1" stop-color="#A2C8E5"/>
</linearGradient>
<linearGradient id="paint6_linear_146_10573" x1="161.275" y1="251.676" x2="161.078" y2="39.467" gradientUnits="userSpaceOnUse">
<stop offset="0.00341" stop-color="#C2E7FF"/>
<stop offset="1" stop-color="#A2C8E5"/>
</linearGradient>
<linearGradient id="paint7_linear_146_10573" x1="169.894" y1="258.891" x2="169.687" y2="34.7326" gradientUnits="userSpaceOnUse">
<stop offset="0.00341" stop-color="#C2E7FF"/>
<stop offset="1" stop-color="#A2C8E5"/>
</linearGradient>
<linearGradient id="paint8_linear_146_10573" x1="129.672" y1="256.311" x2="129.464" y2="31.6331" gradientUnits="userSpaceOnUse">
<stop offset="0.00341" stop-color="#C2E7FF"/>
<stop offset="1" stop-color="#A2C8E5"/>
</linearGradient>
<linearGradient id="paint9_linear_146_10573" x1="187.55" y1="253.089" x2="187.353" y2="39.4519" gradientUnits="userSpaceOnUse">
<stop offset="0.00341" stop-color="#C2E7FF"/>
<stop offset="1" stop-color="#A2C8E5"/>
</linearGradient>
<linearGradient id="paint10_linear_146_10573" x1="139.919" y1="254.989" x2="139.712" y2="30.8731" gradientUnits="userSpaceOnUse">
<stop offset="0.00341" stop-color="#C2E7FF"/>
<stop offset="1" stop-color="#A2C8E5"/>
</linearGradient>
<linearGradient id="paint11_linear_146_10573" x1="184.247" y1="254.1" x2="184.046" y2="36.2178" gradientUnits="userSpaceOnUse">
<stop offset="0.00341" stop-color="#C2E7FF"/>
<stop offset="1" stop-color="#A2C8E5"/>
</linearGradient>
<linearGradient id="paint12_linear_146_10573" x1="173.586" y1="253.083" x2="173.382" y2="32.3812" gradientUnits="userSpaceOnUse">
<stop offset="0.00341" stop-color="#C2E7FF"/>
<stop offset="1" stop-color="#A2C8E5"/>
</linearGradient>
<linearGradient id="paint13_linear_146_10573" x1="153.004" y1="249.943" x2="152.803" y2="32.113" gradientUnits="userSpaceOnUse">
<stop offset="0.00341" stop-color="#C2E7FF"/>
<stop offset="1" stop-color="#A2C8E5"/>
</linearGradient>
<linearGradient id="paint14_linear_146_10573" x1="167.525" y1="252.199" x2="167.32" y2="30.7391" gradientUnits="userSpaceOnUse">
<stop offset="0.00341" stop-color="#C2E7FF"/>
<stop offset="1" stop-color="#A2C8E5"/>
</linearGradient>
<linearGradient id="paint15_linear_146_10573" x1="150.185" y1="249.664" x2="149.981" y2="28.9466" gradientUnits="userSpaceOnUse">
<stop offset="0.00341" stop-color="#C2E7FF"/>
<stop offset="1" stop-color="#A2C8E5"/>
</linearGradient>
<linearGradient id="paint16_linear_146_10573" x1="98.5691" y1="248.075" x2="98.3742" y2="37.0815" gradientUnits="userSpaceOnUse">
<stop offset="0.00341" stop-color="#C2E7FF"/>
<stop offset="1" stop-color="#A2C8E5"/>
</linearGradient>
<linearGradient id="paint17_linear_146_10573" x1="102.817" y1="252.018" x2="102.613" y2="31.0023" gradientUnits="userSpaceOnUse">
<stop offset="0.00341" stop-color="#C2E7FF"/>
<stop offset="1" stop-color="#A2C8E5"/>
</linearGradient>
<linearGradient id="paint18_linear_146_10573" x1="102.044" y1="251.972" x2="101.838" y2="28.4038" gradientUnits="userSpaceOnUse">
<stop offset="0.00341" stop-color="#C2E7FF"/>
<stop offset="1" stop-color="#A2C8E5"/>
</linearGradient>
<linearGradient id="paint19_linear_146_10573" x1="87.2135" y1="249.739" x2="87.0093" y2="28.659" gradientUnits="userSpaceOnUse">
<stop offset="0.00341" stop-color="#C2E7FF"/>
<stop offset="1" stop-color="#A2C8E5"/>
</linearGradient>
<linearGradient id="paint20_linear_146_10573" x1="122.102" y1="247.563" x2="121.906" y2="35.2597" gradientUnits="userSpaceOnUse">
<stop offset="0.00341" stop-color="#C2E7FF"/>
<stop offset="1" stop-color="#A2C8E5"/>
</linearGradient>
<linearGradient id="paint21_linear_146_10573" x1="61.7013" y1="245.146" x2="61.5035" y2="31.11" gradientUnits="userSpaceOnUse">
<stop offset="0.00341" stop-color="#C2E7FF"/>
<stop offset="1" stop-color="#A2C8E5"/>
</linearGradient>
<linearGradient id="paint22_linear_146_10573" x1="63.8223" y1="246.277" x2="63.618" y2="25.1846" gradientUnits="userSpaceOnUse">
<stop offset="0.00341" stop-color="#C2E7FF"/>
<stop offset="1" stop-color="#A2C8E5"/>
</linearGradient>
<linearGradient id="paint23_linear_146_10573" x1="92.0311" y1="249.961" x2="91.8233" y2="25.059" gradientUnits="userSpaceOnUse">
<stop offset="0.00341" stop-color="#C2E7FF"/>
<stop offset="1" stop-color="#A2C8E5"/>
</linearGradient>
<linearGradient id="paint24_linear_146_10573" x1="35.8483" y1="241.811" x2="35.6533" y2="30.7923" gradientUnits="userSpaceOnUse">
<stop offset="0.00341" stop-color="#C2E7FF"/>
<stop offset="1" stop-color="#A2C8E5"/>
</linearGradient>
<linearGradient id="paint25_linear_146_10573" x1="98.5972" y1="245.078" x2="98.4009" y2="32.7288" gradientUnits="userSpaceOnUse">
<stop offset="0.00341" stop-color="#C2E7FF"/>
<stop offset="1" stop-color="#A2C8E5"/>
</linearGradient>
<linearGradient id="paint26_linear_146_10573" x1="107.61" y1="248.761" x2="107.403" y2="24.5607" gradientUnits="userSpaceOnUse">
<stop offset="0.00341" stop-color="#C2E7FF"/>
<stop offset="1" stop-color="#A2C8E5"/>
</linearGradient>
<linearGradient id="paint27_linear_146_10573" x1="67.3996" y1="246.016" x2="67.192" y2="21.3556" gradientUnits="userSpaceOnUse">
<stop offset="0.00341" stop-color="#C2E7FF"/>
<stop offset="1" stop-color="#A2C8E5"/>
</linearGradient>
<linearGradient id="paint28_linear_146_10573" x1="40.4233" y1="242.81" x2="40.219" y2="21.7294" gradientUnits="userSpaceOnUse">
<stop offset="0.00341" stop-color="#C2E7FF"/>
<stop offset="1" stop-color="#A2C8E5"/>
</linearGradient>
<linearGradient id="paint29_linear_146_10573" x1="124.919" y1="246.049" x2="124.722" y2="32.3815" gradientUnits="userSpaceOnUse">
<stop offset="0.00341" stop-color="#C2E7FF"/>
<stop offset="1" stop-color="#A2C8E5"/>
</linearGradient>
<linearGradient id="paint30_linear_146_10573" x1="77.6295" y1="244.864" x2="77.4224" y2="20.742" gradientUnits="userSpaceOnUse">
<stop offset="0.00341" stop-color="#C2E7FF"/>
<stop offset="1" stop-color="#A2C8E5"/>
</linearGradient>
<linearGradient id="paint31_linear_146_10573" x1="121.752" y1="245.803" x2="121.551" y2="27.9747" gradientUnits="userSpaceOnUse">
<stop offset="0.00341" stop-color="#C2E7FF"/>
<stop offset="1" stop-color="#A2C8E5"/>
</linearGradient>
<linearGradient id="paint32_linear_146_10573" x1="111.186" y1="243.962" x2="110.982" y2="23.1967" gradientUnits="userSpaceOnUse">
<stop offset="0.00341" stop-color="#C2E7FF"/>
<stop offset="1" stop-color="#A2C8E5"/>
</linearGradient>
<linearGradient id="paint33_linear_146_10573" x1="75.0908" y1="242.568" x2="74.8946" y2="30.3166" gradientUnits="userSpaceOnUse">
<stop offset="0.00341" stop-color="#C2E7FF"/>
<stop offset="1" stop-color="#A2C8E5"/>
</linearGradient>
<linearGradient id="paint34_linear_146_10573" x1="189.639" y1="247.248" x2="189.437" y2="28.5309" gradientUnits="userSpaceOnUse">
<stop offset="0.00341" stop-color="#C2E7FF"/>
<stop offset="1" stop-color="#A2C8E5"/>
</linearGradient>
<linearGradient id="paint35_linear_146_10573" x1="209.635" y1="249.15" x2="209.436" y2="33.733" gradientUnits="userSpaceOnUse">
<stop offset="0.00341" stop-color="#C2E7FF"/>
<stop offset="1" stop-color="#A2C8E5"/>
</linearGradient>
<linearGradient id="paint36_linear_146_10573" x1="183.75" y1="248.507" x2="183.543" y2="24.3576" gradientUnits="userSpaceOnUse">
<stop offset="0.00341" stop-color="#C2E7FF"/>
<stop offset="1" stop-color="#A2C8E5"/>
</linearGradient>
<linearGradient id="paint37_linear_146_10573" x1="187.601" y1="246.367" x2="187.403" y2="32.3263" gradientUnits="userSpaceOnUse">
<stop offset="0.00341" stop-color="#C2E7FF"/>
<stop offset="1" stop-color="#A2C8E5"/>
</linearGradient>
<linearGradient id="paint38_linear_146_10573" x1="169.651" y1="244.937" x2="169.446" y2="23.872" gradientUnits="userSpaceOnUse">
<stop offset="0.00341" stop-color="#C2E7FF"/>
<stop offset="1" stop-color="#A2C8E5"/>
</linearGradient>
<linearGradient id="paint39_linear_146_10573" x1="215.5" y1="258.199" x2="215.299" y2="40.407" gradientUnits="userSpaceOnUse">
<stop offset="0.00341" stop-color="#C2E7FF"/>
<stop offset="1" stop-color="#A2C8E5"/>
</linearGradient>
<linearGradient id="paint40_linear_146_10573" x1="229.898" y1="261.583" x2="229.693" y2="40.0565" gradientUnits="userSpaceOnUse">
<stop offset="0.00341" stop-color="#C2E7FF"/>
<stop offset="1" stop-color="#A2C8E5"/>
</linearGradient>
<linearGradient id="paint41_linear_146_10573" x1="212.581" y1="258.82" x2="212.377" y2="38.0487" gradientUnits="userSpaceOnUse">
<stop offset="0.00341" stop-color="#C2E7FF"/>
<stop offset="1" stop-color="#A2C8E5"/>
</linearGradient>
<linearGradient id="paint42_linear_146_10573" x1="246.035" y1="258.644" x2="245.828" y2="34.4953" gradientUnits="userSpaceOnUse">
<stop offset="0.00341" stop-color="#C2E7FF"/>
<stop offset="1" stop-color="#A2C8E5"/>
</linearGradient>
<linearGradient id="paint43_linear_146_10573" x1="250.214" y1="253.516" x2="250.016" y2="39.5266" gradientUnits="userSpaceOnUse">
<stop offset="0.00341" stop-color="#C2E7FF"/>
<stop offset="1" stop-color="#A2C8E5"/>
</linearGradient>
<linearGradient id="paint44_linear_146_10573" x1="232.039" y1="254.146" x2="231.835" y2="33.1652" gradientUnits="userSpaceOnUse">
<stop offset="0.00341" stop-color="#C2E7FF"/>
<stop offset="1" stop-color="#A2C8E5"/>
</linearGradient>
<linearGradient id="paint45_linear_146_10573" x1="224.248" y1="252.999" x2="224.044" y2="32.0081" gradientUnits="userSpaceOnUse">
<stop offset="0.00341" stop-color="#C2E7FF"/>
<stop offset="1" stop-color="#A2C8E5"/>
</linearGradient>
<linearGradient id="paint46_linear_146_10573" x1="228.976" y1="250.449" x2="228.78" y2="39.1495" gradientUnits="userSpaceOnUse">
<stop offset="0.00341" stop-color="#C2E7FF"/>
<stop offset="1" stop-color="#A2C8E5"/>
</linearGradient>
<linearGradient id="paint47_linear_146_10573" x1="202.947" y1="250.928" x2="202.741" y2="27.8118" gradientUnits="userSpaceOnUse">
<stop offset="0.00341" stop-color="#C2E7FF"/>
<stop offset="1" stop-color="#A2C8E5"/>
</linearGradient>
<linearGradient id="paint48_linear_146_10573" x1="137.77" y1="249.177" x2="137.574" y2="37.001" gradientUnits="userSpaceOnUse">
<stop offset="0.00341" stop-color="#C2E7FF"/>
<stop offset="1" stop-color="#A2C8E5"/>
</linearGradient>
<linearGradient id="paint49_linear_146_10573" x1="252.105" y1="255.797" x2="251.902" y2="37.0571" gradientUnits="userSpaceOnUse">
<stop offset="0.00341" stop-color="#C2E7FF"/>
<stop offset="1" stop-color="#A2C8E5"/>
</linearGradient>
<linearGradient id="paint50_linear_146_10573" x1="272.205" y1="256.729" x2="272.006" y2="41.2884" gradientUnits="userSpaceOnUse">
<stop offset="0.00341" stop-color="#C2E7FF"/>
<stop offset="1" stop-color="#A2C8E5"/>
</linearGradient>
<linearGradient id="paint51_linear_146_10573" x1="286.634" y1="262.249" x2="286.43" y2="41.1763" gradientUnits="userSpaceOnUse">
<stop offset="0.00341" stop-color="#C2E7FF"/>
<stop offset="1" stop-color="#A2C8E5"/>
</linearGradient>
<linearGradient id="paint52_linear_146_10573" x1="291.681" y1="256.861" x2="291.486" y2="45.4395" gradientUnits="userSpaceOnUse">
<stop offset="0.00341" stop-color="#C2E7FF"/>
<stop offset="1" stop-color="#A2C8E5"/>
</linearGradient>
<linearGradient id="paint53_linear_146_10573" x1="265.268" y1="260.774" x2="265.061" y2="37.6249" gradientUnits="userSpaceOnUse">
<stop offset="0.00341" stop-color="#C2E7FF"/>
<stop offset="1" stop-color="#A2C8E5"/>
</linearGradient>
<linearGradient id="paint54_linear_146_10573" x1="280.317" y1="160.325" x2="280.12" y2="-53.7363" gradientUnits="userSpaceOnUse">
<stop offset="0.00341" stop-color="#C2E7FF"/>
<stop offset="1" stop-color="#A2C8E5"/>
</linearGradient>
<linearGradient id="paint55_linear_146_10573" x1="305.612" y1="166.921" x2="305.408" y2="-54.0823" gradientUnits="userSpaceOnUse">
<stop offset="0.00341" stop-color="#C2E7FF"/>
<stop offset="1" stop-color="#A2C8E5"/>
</linearGradient>
<linearGradient id="paint56_linear_146_10573" x1="320.34" y1="169.968" x2="320.134" y2="-53.645" gradientUnits="userSpaceOnUse">
<stop offset="0.00341" stop-color="#C2E7FF"/>
<stop offset="1" stop-color="#A2C8E5"/>
</linearGradient>
<linearGradient id="paint57_linear_146_10573" x1="340.781" y1="162.194" x2="340.585" y2="-50.0747" gradientUnits="userSpaceOnUse">
<stop offset="0.00341" stop-color="#C2E7FF"/>
<stop offset="1" stop-color="#A2C8E5"/>
</linearGradient>
<linearGradient id="paint58_linear_146_10573" x1="282.206" y1="163.5" x2="282.002" y2="-57.5632" gradientUnits="userSpaceOnUse">
<stop offset="0.00341" stop-color="#C2E7FF"/>
<stop offset="1" stop-color="#A2C8E5"/>
</linearGradient>
<linearGradient id="paint59_linear_146_10573" x1="310.283" y1="168.381" x2="310.075" y2="-56.6224" gradientUnits="userSpaceOnUse">
<stop offset="0.00341" stop-color="#C2E7FF"/>
<stop offset="1" stop-color="#A2C8E5"/>
</linearGradient>
<linearGradient id="paint60_linear_146_10573" x1="317.275" y1="159.676" x2="317.078" y2="-52.533" gradientUnits="userSpaceOnUse">
<stop offset="0.00341" stop-color="#C2E7FF"/>
<stop offset="1" stop-color="#A2C8E5"/>
</linearGradient>
<linearGradient id="paint61_linear_146_10573" x1="325.894" y1="166.891" x2="325.687" y2="-57.2674" gradientUnits="userSpaceOnUse">
<stop offset="0.00341" stop-color="#C2E7FF"/>
<stop offset="1" stop-color="#A2C8E5"/>
</linearGradient>
<linearGradient id="paint62_linear_146_10573" x1="285.672" y1="164.311" x2="285.464" y2="-60.3669" gradientUnits="userSpaceOnUse">
<stop offset="0.00341" stop-color="#C2E7FF"/>
<stop offset="1" stop-color="#A2C8E5"/>
</linearGradient>
<linearGradient id="paint63_linear_146_10573" x1="343.55" y1="161.089" x2="343.353" y2="-52.5481" gradientUnits="userSpaceOnUse">
<stop offset="0.00341" stop-color="#C2E7FF"/>
<stop offset="1" stop-color="#A2C8E5"/>
</linearGradient>
<linearGradient id="paint64_linear_146_10573" x1="295.919" y1="162.989" x2="295.712" y2="-61.1269" gradientUnits="userSpaceOnUse">
<stop offset="0.00341" stop-color="#C2E7FF"/>
<stop offset="1" stop-color="#A2C8E5"/>
</linearGradient>
<linearGradient id="paint65_linear_146_10573" x1="340.247" y1="162.1" x2="340.046" y2="-55.7822" gradientUnits="userSpaceOnUse">
<stop offset="0.00341" stop-color="#C2E7FF"/>
<stop offset="1" stop-color="#A2C8E5"/>
</linearGradient>
<linearGradient id="paint66_linear_146_10573" x1="329.586" y1="161.083" x2="329.382" y2="-59.6188" gradientUnits="userSpaceOnUse">
<stop offset="0.00341" stop-color="#C2E7FF"/>
<stop offset="1" stop-color="#A2C8E5"/>
</linearGradient>
<linearGradient id="paint67_linear_146_10573" x1="309.004" y1="157.943" x2="308.803" y2="-59.887" gradientUnits="userSpaceOnUse">
<stop offset="0.00341" stop-color="#C2E7FF"/>
<stop offset="1" stop-color="#A2C8E5"/>
</linearGradient>
<linearGradient id="paint68_linear_146_10573" x1="323.525" y1="160.199" x2="323.32" y2="-61.2609" gradientUnits="userSpaceOnUse">
<stop offset="0.00341" stop-color="#C2E7FF"/>
<stop offset="1" stop-color="#A2C8E5"/>
</linearGradient>
<linearGradient id="paint69_linear_146_10573" x1="306.185" y1="157.664" x2="305.981" y2="-63.0534" gradientUnits="userSpaceOnUse">
<stop offset="0.00341" stop-color="#C2E7FF"/>
<stop offset="1" stop-color="#A2C8E5"/>
</linearGradient>
<linearGradient id="paint70_linear_146_10573" x1="254.569" y1="156.075" x2="254.374" y2="-54.9185" gradientUnits="userSpaceOnUse">
<stop offset="0.00341" stop-color="#C2E7FF"/>
<stop offset="1" stop-color="#A2C8E5"/>
</linearGradient>
<linearGradient id="paint71_linear_146_10573" x1="258.817" y1="160.018" x2="258.613" y2="-60.9977" gradientUnits="userSpaceOnUse">
<stop offset="0.00341" stop-color="#C2E7FF"/>
<stop offset="1" stop-color="#A2C8E5"/>
</linearGradient>
<linearGradient id="paint72_linear_146_10573" x1="258.044" y1="159.972" x2="257.838" y2="-63.5962" gradientUnits="userSpaceOnUse">
<stop offset="0.00341" stop-color="#C2E7FF"/>
<stop offset="1" stop-color="#A2C8E5"/>
</linearGradient>
<linearGradient id="paint73_linear_146_10573" x1="243.214" y1="157.739" x2="243.009" y2="-63.341" gradientUnits="userSpaceOnUse">
<stop offset="0.00341" stop-color="#C2E7FF"/>
<stop offset="1" stop-color="#A2C8E5"/>
</linearGradient>
<linearGradient id="paint74_linear_146_10573" x1="278.102" y1="155.563" x2="277.906" y2="-56.7403" gradientUnits="userSpaceOnUse">
<stop offset="0.00341" stop-color="#C2E7FF"/>
<stop offset="1" stop-color="#A2C8E5"/>
</linearGradient>
<linearGradient id="paint75_linear_146_10573" x1="217.701" y1="153.146" x2="217.504" y2="-60.89" gradientUnits="userSpaceOnUse">
<stop offset="0.00341" stop-color="#C2E7FF"/>
<stop offset="1" stop-color="#A2C8E5"/>
</linearGradient>
<linearGradient id="paint76_linear_146_10573" x1="219.822" y1="154.277" x2="219.618" y2="-66.8154" gradientUnits="userSpaceOnUse">
<stop offset="0.00341" stop-color="#C2E7FF"/>
<stop offset="1" stop-color="#A2C8E5"/>
</linearGradient>
<linearGradient id="paint77_linear_146_10573" x1="248.031" y1="157.961" x2="247.823" y2="-66.941" gradientUnits="userSpaceOnUse">
<stop offset="0.00341" stop-color="#C2E7FF"/>
<stop offset="1" stop-color="#A2C8E5"/>
</linearGradient>
<linearGradient id="paint78_linear_146_10573" x1="191.848" y1="149.811" x2="191.653" y2="-61.2077" gradientUnits="userSpaceOnUse">
<stop offset="0.00341" stop-color="#C2E7FF"/>
<stop offset="1" stop-color="#A2C8E5"/>
</linearGradient>
<linearGradient id="paint79_linear_146_10573" x1="254.597" y1="153.078" x2="254.401" y2="-59.2712" gradientUnits="userSpaceOnUse">
<stop offset="0.00341" stop-color="#C2E7FF"/>
<stop offset="1" stop-color="#A2C8E5"/>
</linearGradient>
<linearGradient id="paint80_linear_146_10573" x1="263.61" y1="156.761" x2="263.403" y2="-67.4393" gradientUnits="userSpaceOnUse">
<stop offset="0.00341" stop-color="#C2E7FF"/>
<stop offset="1" stop-color="#A2C8E5"/>
</linearGradient>
<linearGradient id="paint81_linear_146_10573" x1="223.4" y1="154.016" x2="223.192" y2="-70.6444" gradientUnits="userSpaceOnUse">
<stop offset="0.00341" stop-color="#C2E7FF"/>
<stop offset="1" stop-color="#A2C8E5"/>
</linearGradient>
<linearGradient id="paint82_linear_146_10573" x1="196.423" y1="150.81" x2="196.219" y2="-70.2706" gradientUnits="userSpaceOnUse">
<stop offset="0.00341" stop-color="#C2E7FF"/>
<stop offset="1" stop-color="#A2C8E5"/>
</linearGradient>
<linearGradient id="paint83_linear_146_10573" x1="280.919" y1="154.049" x2="280.722" y2="-59.6185" gradientUnits="userSpaceOnUse">
<stop offset="0.00341" stop-color="#C2E7FF"/>
<stop offset="1" stop-color="#A2C8E5"/>
</linearGradient>
<linearGradient id="paint84_linear_146_10573" x1="233.63" y1="152.864" x2="233.422" y2="-71.258" gradientUnits="userSpaceOnUse">
<stop offset="0.00341" stop-color="#C2E7FF"/>
<stop offset="1" stop-color="#A2C8E5"/>
</linearGradient>
<linearGradient id="paint85_linear_146_10573" x1="277.752" y1="153.803" x2="277.551" y2="-64.0253" gradientUnits="userSpaceOnUse">
<stop offset="0.00341" stop-color="#C2E7FF"/>
<stop offset="1" stop-color="#A2C8E5"/>
</linearGradient>
<linearGradient id="paint86_linear_146_10573" x1="267.186" y1="151.962" x2="266.982" y2="-68.8033" gradientUnits="userSpaceOnUse">
<stop offset="0.00341" stop-color="#C2E7FF"/>
<stop offset="1" stop-color="#A2C8E5"/>
</linearGradient>
<linearGradient id="paint87_linear_146_10573" x1="231.091" y1="150.568" x2="230.895" y2="-61.6834" gradientUnits="userSpaceOnUse">
<stop offset="0.00341" stop-color="#C2E7FF"/>
<stop offset="1" stop-color="#A2C8E5"/>
</linearGradient>
<linearGradient id="paint88_linear_146_10573" x1="345.639" y1="155.248" x2="345.437" y2="-63.4691" gradientUnits="userSpaceOnUse">
<stop offset="0.00341" stop-color="#C2E7FF"/>
<stop offset="1" stop-color="#A2C8E5"/>
</linearGradient>
<linearGradient id="paint89_linear_146_10573" x1="365.635" y1="157.15" x2="365.436" y2="-58.267" gradientUnits="userSpaceOnUse">
<stop offset="0.00341" stop-color="#C2E7FF"/>
<stop offset="1" stop-color="#A2C8E5"/>
</linearGradient>
<linearGradient id="paint90_linear_146_10573" x1="339.75" y1="156.507" x2="339.543" y2="-67.6424" gradientUnits="userSpaceOnUse">
<stop offset="0.00341" stop-color="#C2E7FF"/>
<stop offset="1" stop-color="#A2C8E5"/>
</linearGradient>
<linearGradient id="paint91_linear_146_10573" x1="343.601" y1="154.367" x2="343.403" y2="-59.6737" gradientUnits="userSpaceOnUse">
<stop offset="0.00341" stop-color="#C2E7FF"/>
<stop offset="1" stop-color="#A2C8E5"/>
</linearGradient>
<linearGradient id="paint92_linear_146_10573" x1="325.651" y1="152.937" x2="325.446" y2="-68.128" gradientUnits="userSpaceOnUse">
<stop offset="0.00341" stop-color="#C2E7FF"/>
<stop offset="1" stop-color="#A2C8E5"/>
</linearGradient>
<linearGradient id="paint93_linear_146_10573" x1="371.5" y1="166.199" x2="371.299" y2="-51.593" gradientUnits="userSpaceOnUse">
<stop offset="0.00341" stop-color="#C2E7FF"/>
<stop offset="1" stop-color="#A2C8E5"/>
</linearGradient>
<linearGradient id="paint94_linear_146_10573" x1="385.898" y1="169.583" x2="385.693" y2="-51.9435" gradientUnits="userSpaceOnUse">
<stop offset="0.00341" stop-color="#C2E7FF"/>
<stop offset="1" stop-color="#A2C8E5"/>
</linearGradient>
<linearGradient id="paint95_linear_146_10573" x1="368.581" y1="166.82" x2="368.377" y2="-53.9513" gradientUnits="userSpaceOnUse">
<stop offset="0.00341" stop-color="#C2E7FF"/>
<stop offset="1" stop-color="#A2C8E5"/>
</linearGradient>
<linearGradient id="paint96_linear_146_10573" x1="402.035" y1="166.644" x2="401.828" y2="-57.5047" gradientUnits="userSpaceOnUse">
<stop offset="0.00341" stop-color="#C2E7FF"/>
<stop offset="1" stop-color="#A2C8E5"/>
</linearGradient>
<linearGradient id="paint97_linear_146_10573" x1="406.214" y1="161.516" x2="406.016" y2="-52.4734" gradientUnits="userSpaceOnUse">
<stop offset="0.00341" stop-color="#C2E7FF"/>
<stop offset="1" stop-color="#A2C8E5"/>
</linearGradient>
<linearGradient id="paint98_linear_146_10573" x1="388.039" y1="162.146" x2="387.835" y2="-58.8348" gradientUnits="userSpaceOnUse">
<stop offset="0.00341" stop-color="#C2E7FF"/>
<stop offset="1" stop-color="#A2C8E5"/>
</linearGradient>
<linearGradient id="paint99_linear_146_10573" x1="380.248" y1="160.999" x2="380.044" y2="-59.9919" gradientUnits="userSpaceOnUse">
<stop offset="0.00341" stop-color="#C2E7FF"/>
<stop offset="1" stop-color="#A2C8E5"/>
</linearGradient>
<linearGradient id="paint100_linear_146_10573" x1="384.976" y1="158.449" x2="384.78" y2="-52.8505" gradientUnits="userSpaceOnUse">
<stop offset="0.00341" stop-color="#C2E7FF"/>
<stop offset="1" stop-color="#A2C8E5"/>
</linearGradient>
<linearGradient id="paint101_linear_146_10573" x1="358.947" y1="158.928" x2="358.741" y2="-64.1882" gradientUnits="userSpaceOnUse">
<stop offset="0.00341" stop-color="#C2E7FF"/>
<stop offset="1" stop-color="#A2C8E5"/>
</linearGradient>
<linearGradient id="paint102_linear_146_10573" x1="293.77" y1="157.177" x2="293.574" y2="-54.999" gradientUnits="userSpaceOnUse">
<stop offset="0.00341" stop-color="#C2E7FF"/>
<stop offset="1" stop-color="#A2C8E5"/>
</linearGradient>
<linearGradient id="paint103_linear_146_10573" x1="408.105" y1="163.797" x2="407.902" y2="-54.9429" gradientUnits="userSpaceOnUse">
<stop offset="0.00341" stop-color="#C2E7FF"/>
<stop offset="1" stop-color="#A2C8E5"/>
</linearGradient>
<linearGradient id="paint104_linear_146_10573" x1="428.205" y1="164.729" x2="428.006" y2="-50.7116" gradientUnits="userSpaceOnUse">
<stop offset="0.00341" stop-color="#C2E7FF"/>
<stop offset="1" stop-color="#A2C8E5"/>
</linearGradient>
<linearGradient id="paint105_linear_146_10573" x1="442.634" y1="170.249" x2="442.43" y2="-50.8237" gradientUnits="userSpaceOnUse">
<stop offset="0.00341" stop-color="#C2E7FF"/>
<stop offset="1" stop-color="#A2C8E5"/>
</linearGradient>
<linearGradient id="paint106_linear_146_10573" x1="447.681" y1="164.861" x2="447.486" y2="-46.5605" gradientUnits="userSpaceOnUse">
<stop offset="0.00341" stop-color="#C2E7FF"/>
<stop offset="1" stop-color="#A2C8E5"/>
</linearGradient>
<linearGradient id="paint107_linear_146_10573" x1="421.268" y1="168.774" x2="421.061" y2="-54.3751" gradientUnits="userSpaceOnUse">
<stop offset="0.00341" stop-color="#C2E7FF"/>
<stop offset="1" stop-color="#A2C8E5"/>
</linearGradient>
<linearGradient id="paint108_linear_146_10573" x1="194.752" y1="55.2719" x2="262.503" y2="55.2719" gradientUnits="userSpaceOnUse">
<stop offset="0.00341" stop-color="#C2E7FF"/>
<stop offset="1" stop-color="#A2C8E5"/>
</linearGradient>
<clipPath id="clip0_146_10573">
<rect width="325" height="154" fill="white" transform="translate(0 92)"/>
</clipPath>
<clipPath id="clip1_146_10573">
<rect width="325" height="154" fill="white" transform="translate(156)"/>
</clipPath>
</defs>
</svg>
